<?xml version="1.0" encoding="UTF-8" standalone="no"?>
<!DOCTYPE svg PUBLIC "-//W3C//DTD SVG 1.1//EN" "http://www.w3.org/Graphics/SVG/1.1/DTD/svg11.dtd">
<svg width="100%" height="100%" viewBox="0 0 736 81" version="1.1" xmlns="http://www.w3.org/2000/svg" xmlns:xlink="http://www.w3.org/1999/xlink" xml:space="preserve" xmlns:serif="http://www.serif.com/" style="fill-rule:evenodd;clip-rule:evenodd;stroke-linejoin:round;stroke-miterlimit:2;">
    <g transform="matrix(1,0,0,1,-165.613,-180.215)">
        <g transform="matrix(0.706911,0,0,0.706911,-4.80832,146.945)">
            <text x="242px" y="136px" style="font-family:'ShowcardGothic-Reg', 'Showcard Gothic', fantasy;font-size:111.684px;fill:url(#_Linear1);">CE SPUN ghibistii?</text>
            <path d="M305.023,89.242C305.905,89.514 306.866,89.339 307.595,88.772C308.324,88.205 308.731,87.317 308.684,86.394L306.939,52.202C306.876,50.968 306.019,49.917 304.822,49.607C301.585,48.77 296.352,48.317 289.117,48.317C273.887,48.317 261.988,52.766 253.351,61.479C253.351,61.48 253.351,61.48 253.351,61.48C245.209,69.699 241.079,80.455 241.079,93.791C241.079,108.165 245.838,119.816 255.265,128.78C255.267,128.781 255.268,128.783 255.27,128.784C263.989,137.038 274.487,141.174 286.772,141.174C293.548,141.174 299.1,140.306 303.437,138.641C304.375,138.281 305.051,137.451 305.214,136.459C305.68,133.628 306.164,130.903 306.666,128.286C307.528,124.332 308.138,121.621 308.498,120.147C308.764,119.057 308.36,117.912 307.469,117.23C306.578,116.548 305.368,116.457 304.385,116.998C301.579,118.543 298.617,119.319 295.497,119.319C291.054,119.319 287.44,118.022 284.698,115.311C281.978,112.621 280.657,109.164 280.657,104.971C280.657,99.5 282.307,95.273 285.8,92.367C285.803,92.364 285.807,92.361 285.81,92.359C288.974,89.701 293.108,88.441 298.169,88.441C300.955,88.441 303.241,88.691 305.023,89.242ZM305.858,86.539C303.859,85.92 301.296,85.611 298.169,85.611C292.352,85.611 287.626,87.138 283.99,90.192C279.882,93.61 277.828,98.536 277.828,104.971C277.828,109.988 279.455,114.105 282.709,117.322C285.963,120.54 290.225,122.149 295.497,122.149C299.096,122.149 302.514,121.258 305.749,119.476C305.386,120.967 304.768,123.712 303.895,127.711C303.386,130.365 302.895,133.128 302.423,136C298.351,137.563 293.134,138.345 286.772,138.345C275.247,138.345 265.395,134.473 257.215,126.729C248.344,118.295 243.909,107.316 243.909,93.791C243.909,81.285 247.726,71.178 255.361,63.471C263.504,55.255 274.756,51.147 289.117,51.147C296.024,51.147 301.023,51.546 304.113,52.346L305.858,86.539Z" style="fill:rgb(255,0,0);"/>
            <path d="M370.74,52.429C370.793,51.647 370.519,50.878 369.984,50.306C369.449,49.733 368.7,49.408 367.917,49.408L310.603,49.408C309.821,49.408 309.074,49.732 308.539,50.302C308.004,50.872 307.729,51.638 307.779,52.418C308.904,69.937 309.611,83.574 309.901,93.33L311.484,136.105C311.54,137.625 312.789,138.829 314.311,138.829L363.118,138.829C364.451,138.829 365.604,137.898 365.884,136.595C366.605,133.24 367.219,130.46 367.725,128.255C368.772,123.995 369.44,121.304 369.729,120.183C369.977,119.221 369.703,118.2 369.006,117.492C368.309,116.784 367.292,116.493 366.326,116.726C363.402,117.432 361.294,117.853 359.997,117.961C354.891,118.266 350.928,118.473 348.085,118.581C348.085,118.581 348.373,112.149 348.373,112.149C350.804,112.148 352.734,112.186 354.164,112.263C358.154,112.641 360.64,112.934 361.636,113.174C362.413,113.362 363.234,113.212 363.894,112.761C364.555,112.311 364.994,111.602 365.103,110.809C365.489,107.999 365.927,105.521 366.419,103.377C367.272,99.786 367.892,97.332 368.284,96.016C368.543,95.144 368.367,94.201 367.812,93.481C367.257,92.762 366.39,92.352 365.481,92.382C358.48,92.606 353.004,92.712 349.051,92.696C349.051,92.696 349.422,87.97 349.422,87.97C351.947,88.063 354.317,88.214 356.53,88.423C360.936,88.96 363.795,89.335 365.119,89.549C365.905,89.677 366.708,89.467 367.331,88.972C367.955,88.477 368.341,87.743 368.395,86.948L370.74,52.429ZM367.917,52.237L365.572,86.757C364.227,86.539 361.318,86.157 356.847,85.611C353.793,85.321 350.448,85.139 346.813,85.066L345.995,95.482C349.994,95.591 356.519,95.5 365.572,95.209C365.172,96.554 364.536,99.063 363.663,102.735C363.154,104.953 362.7,107.516 362.3,110.424C361.246,110.17 358.61,109.842 354.393,109.442C352.429,109.333 349.521,109.297 345.667,109.333L345.122,121.494C347.849,121.458 352.866,121.222 360.173,120.785C361.555,120.676 363.827,120.24 366.99,119.476C366.699,120.603 366.026,123.312 364.972,127.602C364.463,129.82 363.845,132.619 363.118,136L314.311,136L312.729,93.246C312.439,83.466 311.73,69.797 310.603,52.237L367.917,52.237Z" style="fill:rgb(255,0,0);"/>
            <path d="M446.247,89.296C447.11,89.494 448.016,89.277 448.696,88.709C449.375,88.141 449.749,87.288 449.707,86.403L448.071,52.211C448.01,50.948 447.12,49.879 445.889,49.591C438.962,47.973 432.711,47.172 427.14,47.172C416.975,47.172 408.856,49.354 402.741,53.56C402.741,53.56 402.74,53.561 402.74,53.561C395.42,58.604 391.7,65.995 391.7,75.796C391.7,85.004 395.442,92.977 403.016,99.674C406.539,102.802 410.067,105.915 413.594,109.011C415.196,110.789 416.022,112.778 416.022,115.005C416.022,115.859 415.876,116.568 415.426,117.081C414.544,118.083 412.929,118.338 410.725,118.338C409.458,118.338 406.997,117.847 403.329,116.947C402.357,116.708 401.332,117.001 400.632,117.716C399.932,118.431 399.662,119.463 399.922,120.429C400.818,123.763 401.519,126.439 402.024,128.457C402.814,132.192 403.371,134.887 403.695,136.543C403.898,137.579 404.66,138.415 405.672,138.714C408.68,139.601 413.343,140.083 419.669,140.083C426.873,140.083 432.911,137.961 437.808,133.792C443.083,129.347 445.729,123.646 445.729,116.695C445.729,112.064 444.069,106.966 440.606,101.449C438.84,98.635 437.593,96.375 436.887,94.658C436.571,93.891 436.349,93.305 436.349,92.864C436.349,91.505 436.856,90.394 437.885,89.538C438.761,88.821 439.718,88.441 440.773,88.441C442.012,88.441 443.834,88.742 446.247,89.296ZM446.881,86.539C444.19,85.92 442.155,85.611 440.773,85.611C439.064,85.611 437.501,86.193 436.083,87.357C434.374,88.774 433.52,90.61 433.52,92.864C433.52,94.609 435.083,97.972 438.21,102.953C441.337,107.934 442.9,112.514 442.9,116.695C442.9,122.767 440.591,127.747 435.974,131.637C431.575,135.382 426.14,137.254 419.669,137.254C413.706,137.254 409.307,136.836 406.472,136C406.145,134.328 405.581,131.601 404.781,127.82C404.272,125.784 403.563,123.076 402.654,119.695C406.653,120.676 409.344,121.167 410.725,121.167C416.142,121.167 418.851,119.113 418.851,115.005C418.851,112.024 417.76,109.352 415.579,106.988C412.016,103.862 408.453,100.717 404.89,97.554C397.983,91.446 394.529,84.194 394.529,75.796C394.529,67.034 397.801,60.399 404.345,55.891C410.053,51.965 417.651,50.001 427.14,50.001C432.52,50.001 438.555,50.783 445.245,52.346L446.881,86.539Z" style="fill:rgb(255,0,0);"/>
            <path d="M524.638,85.284C524.638,72.496 519.626,62.819 509.689,56.208C509.688,56.208 509.688,56.207 509.688,56.207C501.256,50.599 490.058,47.717 476.056,47.717C464.87,47.717 456.38,48.31 450.583,49.462C449.2,49.737 448.231,50.987 448.309,52.394C449.326,70.664 450.071,85.03 450.543,95.492C450.543,95.492 452.125,136.11 452.125,136.11C452.184,137.629 453.432,138.829 454.952,138.829L484.999,138.829C486.519,138.829 487.767,137.629 487.826,136.111L488.376,122.134C498.837,121.641 507.315,118.27 513.848,112.132C521.002,105.411 524.638,96.478 524.638,85.284ZM521.809,85.284C521.809,95.609 518.51,103.871 511.911,110.07C505.313,116.268 496.56,119.367 485.654,119.367L484.999,136L454.952,136L453.37,95.373C452.898,84.903 452.152,70.524 451.134,52.237C456.806,51.11 465.113,50.547 476.056,50.547C489.398,50.547 500.087,53.219 508.121,58.563C517.247,64.634 521.809,73.541 521.809,85.284ZM499.178,94.446C499.178,88.774 495.815,85.939 489.089,85.939C488.289,85.939 487.471,85.993 486.635,86.102L486.09,105.189C494.815,104.898 499.178,101.317 499.178,94.446ZM489.389,88.771C491.778,88.8 493.615,89.202 494.832,90.228C495.93,91.155 496.349,92.593 496.349,94.446C496.349,96.444 495.914,98.081 494.9,99.314C493.652,100.829 491.667,101.696 489.008,102.1L489.389,88.771Z" style="fill:rgb(255,0,0);"/>
            <path d="M602.074,52.338C602.101,51.57 601.815,50.825 601.282,50.273C600.749,49.72 600.014,49.408 599.246,49.408L572.307,49.408C571.523,49.408 570.775,49.733 570.24,50.305C569.705,50.878 569.431,51.646 569.484,52.428C570.463,66.927 571.134,78.259 571.497,86.421C571.896,101.349 572.112,112.573 572.145,120.093C571.647,120.229 571.175,120.301 570.725,120.301C567.585,120.301 565.383,119.419 564.336,117.223C564.334,117.22 564.333,117.216 564.331,117.213C563.015,114.48 562.463,109.186 562.43,101.359C562.43,101.348 562.43,101.337 562.429,101.325C562.248,90.283 562.212,81.757 562.32,75.745C562.574,64.934 562.792,57.134 562.973,52.344C563.002,51.576 562.717,50.829 562.184,50.275C561.651,49.721 560.915,49.408 560.146,49.408L524.972,49.408C524.209,49.408 523.479,49.716 522.946,50.262C522.414,50.809 522.124,51.547 522.144,52.309C522.4,62.324 523.075,73.399 524.172,85.533C525.317,98.802 526.555,107.931 527.848,112.925C530.214,122.189 534.332,128.962 540.048,133.338C546.665,138.407 556.288,141.065 568.98,141.065C578.976,141.065 588.784,139.338 598.403,135.881C599.527,135.478 600.276,134.412 600.276,133.219C600.276,112.869 600.456,97.67 600.819,87.622L602.074,52.338ZM599.246,52.237L597.992,87.52C597.628,97.591 597.446,112.823 597.446,133.219C588.14,136.564 578.651,138.236 568.98,138.236C557.056,138.236 547.985,135.855 541.768,131.092C536.497,127.057 532.77,120.767 530.589,112.224C529.317,107.316 528.117,98.336 526.99,85.284C525.899,73.214 525.227,62.199 524.972,52.237L560.146,52.237C559.964,57.036 559.746,64.853 559.491,75.686C559.382,81.721 559.419,90.283 559.601,101.372C559.637,109.806 560.364,115.496 561.782,118.44C563.272,121.567 566.254,123.13 570.725,123.13C571.998,123.13 573.416,122.767 574.979,122.04C574.979,114.55 574.761,102.644 574.324,86.32C573.961,78.14 573.288,66.779 572.307,52.237L599.246,52.237Z" style="fill:rgb(255,0,0);"/>
            <path d="M673.561,52.433C673.616,51.65 673.343,50.881 672.807,50.307C672.272,49.734 671.523,49.408 670.739,49.408L650.507,49.408C649.713,49.408 648.956,49.742 648.42,50.328C647.884,50.913 647.619,51.697 647.689,52.488C648.012,56.114 648.228,59.021 648.336,61.211C648.336,61.219 648.337,61.227 648.337,61.235C648.397,62.261 648.443,63.447 648.478,64.793C648.478,64.792 633.038,50.182 633.038,50.182C632.513,49.685 631.817,49.408 631.093,49.408L603.718,49.408C602.927,49.408 602.172,49.739 601.636,50.321C601.101,50.903 600.833,51.682 600.898,52.471C601.842,63.864 602.767,77.833 603.674,94.378C604.727,114.827 605.399,128.738 605.69,136.111C605.75,137.629 606.998,138.829 608.517,138.829L626.076,138.829C627.618,138.829 628.876,137.595 628.905,136.053L629.35,112.478C635.549,116.841 640.373,120.227 643.822,122.635C653.527,130.022 660.753,135.582 665.5,139.315C666.343,139.978 667.489,140.107 668.459,139.648C669.428,139.189 670.055,138.222 670.077,137.149C670.44,119.689 670.894,104.243 671.439,90.81C672.346,72.557 673.053,59.764 673.561,52.433ZM670.739,52.237C670.23,59.581 669.521,72.396 668.612,90.683C668.067,104.135 667.612,119.604 667.249,137.091C662.486,133.346 655.233,127.766 645.49,120.349C641.273,117.404 634.983,112.987 626.622,107.097L626.076,136L608.517,136C608.226,128.62 607.553,114.696 606.499,94.228C605.59,77.65 604.663,63.653 603.718,52.237L631.093,52.237L651.38,71.433C651.38,67.034 651.307,63.58 651.162,61.072C651.052,58.854 650.834,55.909 650.507,52.237L670.739,52.237Z" style="fill:rgb(255,0,0);"/>
            <path d="M773.29,100.502C773.384,99.7 773.131,98.895 772.594,98.292C772.057,97.688 771.288,97.343 770.48,97.343L747.358,97.343C746.535,97.343 745.753,97.701 745.216,98.323C744.679,98.946 744.439,99.772 744.559,100.586C745.31,105.666 745.796,109.32 746.012,111.547C746.012,111.547 746.629,119.303 746.629,119.303C743.733,118.956 741.108,117.945 738.759,116.253C738.756,116.251 738.753,116.249 738.75,116.247C735.188,113.703 733.445,110.077 733.445,105.407C733.445,100.311 735.643,96.129 739.966,92.824C744.001,89.759 748.518,88.223 753.52,88.223C757.519,88.223 760.607,88.583 762.77,89.402C763.68,89.747 764.704,89.6 765.48,89.013C766.256,88.425 766.675,87.48 766.591,86.511L763.592,52.101C763.477,50.781 762.462,49.718 761.149,49.542C755.053,48.724 749.347,48.317 744.031,48.317C729.468,48.317 717.754,52.328 708.839,60.205C699.274,68.647 694.413,80.348 694.413,95.373C694.413,111.128 699.987,122.952 710.957,130.926C710.96,130.929 710.964,130.932 710.968,130.934C720.086,137.496 731.912,140.847 746.485,140.847C756.177,140.847 763.545,140.078 768.598,138.607C769.76,138.269 770.578,137.231 770.634,136.023C770.959,129.041 771.303,122.999 771.665,117.896C772.387,109.372 772.928,103.574 773.29,100.502ZM770.48,100.172C770.116,103.262 769.571,109.097 768.844,117.677C768.48,122.803 768.135,128.874 767.808,135.891C762.936,137.309 755.829,138.018 746.485,138.018C732.598,138.018 721.309,134.891 712.62,128.638C702.368,121.185 697.242,110.097 697.242,95.373C697.242,81.267 701.732,70.251 710.712,62.326C719.146,54.873 730.253,51.147 744.031,51.147C749.23,51.147 754.811,51.546 760.773,52.346L763.772,86.757C761.373,85.848 757.955,85.393 753.52,85.393C747.885,85.393 742.795,87.12 738.251,90.574C733.161,94.464 730.616,99.408 730.616,105.407C730.616,111.078 732.779,115.459 737.106,118.549C740.741,121.167 744.94,122.403 749.703,122.258L748.83,111.297C748.612,109.042 748.121,105.334 747.358,100.172L770.48,100.172Z" style="fill:rgb(255,0,0);"/>
            <path d="M811.174,121.525L811.719,122.814C812.042,123.579 812.684,124.163 813.476,124.411C814.268,124.66 815.129,124.549 815.832,124.107C816.735,123.538 818.277,122.798 820.447,121.863C820.508,121.837 820.567,121.812 820.626,121.788C820.626,121.788 821.095,136.093 821.095,136.093C821.145,137.618 822.396,138.829 823.922,138.829L851.734,138.829C853.25,138.829 854.497,137.635 854.561,136.12C855.288,118.999 855.797,105.637 856.088,96.033C857.104,75.894 857.921,61.361 858.538,52.432C858.592,51.65 858.319,50.88 857.783,50.307C857.248,49.734 856.499,49.408 855.715,49.408L820.214,49.408C819.437,49.408 818.694,49.727 818.16,50.291C817.626,50.855 817.347,51.614 817.389,52.39L820.022,101.027C818.68,101.13 817.541,101.193 816.604,101.215C816.583,101.216 816.563,101.216 816.543,101.217C815.07,101.283 813.555,101.279 811.998,101.204C811.998,101.204 814.424,52.378 814.424,52.378C814.462,51.604 814.181,50.848 813.647,50.287C813.113,49.726 812.373,49.408 811.598,49.408L773.316,49.408C772.531,49.408 771.781,49.734 771.246,50.308C770.711,50.882 770.438,51.652 770.493,52.435C771.799,71.075 772.615,85.599 772.942,96.007L774.524,136.112C774.584,137.629 775.832,138.829 777.351,138.829L808.053,138.829C809.594,138.829 810.851,137.597 810.882,136.057L811.174,121.525ZM855.715,52.237C855.097,61.181 854.279,75.741 853.261,95.918C852.97,105.516 852.461,118.877 851.734,136L823.922,136L823.322,117.677C822.668,117.895 821.341,118.422 819.342,119.258C816.978,120.276 815.306,121.094 814.324,121.712L811.489,115.005C810.907,113.551 809.944,111.496 808.599,108.843L808.053,136L777.351,136L775.77,95.918C775.442,85.484 774.624,70.924 773.316,52.237L811.598,52.237L809.035,103.825C811.689,104.08 814.234,104.153 816.669,104.044C818.233,104.007 820.341,103.862 822.995,103.607L820.214,52.237L855.715,52.237Z" style="fill:rgb(255,0,0);"/>
            <path d="M900.859,52.372C900.896,51.599 900.614,50.845 900.08,50.285C899.546,49.725 898.806,49.408 898.033,49.408L860.187,49.408C859.415,49.408 858.676,49.724 858.142,50.281C857.609,50.839 857.326,51.591 857.36,52.362L861.069,136.125C861.136,137.638 862.381,138.829 863.895,138.829L894.488,138.829C896.014,138.829 897.265,137.619 897.316,136.093C897.861,119.567 898.333,106.508 898.732,96.917C898.732,96.917 900.859,52.372 900.859,52.372ZM898.033,52.237L895.906,96.791C895.506,106.389 895.033,119.458 894.488,136L863.895,136L860.187,52.237L898.033,52.237Z" style="fill:rgb(255,0,0);"/>
            <path d="M975.79,79.831C975.79,58.632 960.396,47.39 928.735,47.39C917.937,47.39 909.014,48.087 901.964,49.46C900.571,49.731 899.594,50.993 899.68,52.409C900.77,70.314 901.587,84.407 902.132,94.689C902.931,113.825 903.458,127.623 903.712,136.085C903.753,137.459 904.776,138.604 906.137,138.8C915.624,140.166 924.502,140.847 932.77,140.847C942.693,140.847 950.7,139.464 956.806,136.793C965.546,132.992 969.792,126.905 969.792,118.713C969.792,115.34 968.851,112.159 966.949,109.175C966.039,107.749 964.999,106.516 963.833,105.474C966.412,103.659 968.681,101.29 970.629,98.355C970.631,98.351 970.634,98.347 970.636,98.343C974.051,93.142 975.79,86.977 975.79,79.831ZM972.961,79.831C972.961,86.375 971.398,92.028 968.271,96.791C965.617,100.79 962.309,103.626 958.346,105.298C960.891,106.389 962.963,108.188 964.563,110.697C966.163,113.205 966.963,115.877 966.963,118.713C966.963,125.766 963.2,130.928 955.674,134.2C949.857,136.745 942.223,138.018 932.77,138.018C924.627,138.018 915.883,137.345 906.54,136C906.285,127.529 905.758,113.714 904.958,94.555C904.413,84.266 903.595,70.16 902.504,52.237C909.412,50.892 918.155,50.219 928.735,50.219C958.219,50.219 972.961,60.09 972.961,79.831ZM948.967,115.986C948.967,111.769 945.949,109.661 939.914,109.661C939.296,109.661 938.66,109.697 938.005,109.77L937.678,123.13C945.204,123.457 948.967,121.076 948.967,115.986ZM940.769,112.504C944.152,112.617 946.137,113.466 946.137,115.986C946.137,118.881 944.142,120.068 940.578,120.294L940.769,112.504ZM950.766,90.083C950.766,87.284 949.639,85.139 947.385,83.648C945.349,82.303 942.677,81.667 939.369,81.74L938.551,98.154C946.694,98.445 950.766,95.755 950.766,90.083ZM947.937,90.083C947.937,93.491 945.655,94.989 941.526,95.29C941.526,95.29 942.054,84.698 942.054,84.698C943.522,84.897 944.782,85.32 945.825,86.008C947.248,86.95 947.937,88.316 947.937,90.083Z" style="fill:rgb(255,0,0);"/>
            <path d="M1017.23,52.372C1017.27,51.599 1016.99,50.845 1016.45,50.285C1015.92,49.725 1015.18,49.408 1014.41,49.408L976.56,49.408C975.788,49.408 975.05,49.724 974.516,50.281C973.982,50.839 973.7,51.591 973.734,52.362L977.442,136.125C977.509,137.638 978.755,138.829 980.269,138.829L1010.86,138.829C1012.39,138.829 1013.64,137.619 1013.69,136.093C1014.23,119.567 1014.71,106.508 1015.11,96.917C1015.11,96.917 1017.23,52.372 1017.23,52.372ZM1014.41,52.237L1012.28,96.791C1011.88,106.389 1011.41,119.458 1010.86,136L980.269,136L976.56,52.237L1014.41,52.237Z" style="fill:rgb(255,0,0);"/>
            <path d="M1070.16,89.296C1071.02,89.494 1071.93,89.277 1072.61,88.709C1073.29,88.141 1073.66,87.288 1073.62,86.403L1071.98,52.211C1071.92,50.948 1071.03,49.879 1069.8,49.591C1062.87,47.973 1056.62,47.172 1051.05,47.172C1040.89,47.172 1032.77,49.354 1026.65,53.56C1026.65,53.56 1026.65,53.561 1026.65,53.561C1019.33,58.604 1015.61,65.995 1015.61,75.796C1015.61,85.004 1019.36,92.977 1026.93,99.674C1030.45,102.802 1033.98,105.915 1037.51,109.011C1039.11,110.789 1039.93,112.778 1039.93,115.005C1039.93,115.859 1039.79,116.568 1039.34,117.081C1038.46,118.083 1036.84,118.338 1034.64,118.338C1033.37,118.338 1030.91,117.847 1027.24,116.947C1026.27,116.708 1025.24,117.001 1024.55,117.716C1023.85,118.431 1023.58,119.463 1023.84,120.429C1024.73,123.763 1025.43,126.439 1025.94,128.457C1026.73,132.192 1027.28,134.887 1027.61,136.543C1027.81,137.579 1028.57,138.415 1029.58,138.714C1032.59,139.601 1037.26,140.083 1043.58,140.083C1050.79,140.083 1056.82,137.961 1061.72,133.792C1067,129.347 1069.64,123.646 1069.64,116.695C1069.64,112.064 1067.98,106.966 1064.52,101.449C1062.75,98.635 1061.51,96.375 1060.8,94.658C1060.48,93.891 1060.26,93.305 1060.26,92.864C1060.26,91.505 1060.77,90.394 1061.8,89.538C1062.67,88.821 1063.63,88.441 1064.69,88.441C1065.92,88.441 1067.75,88.742 1070.16,89.296ZM1070.79,86.539C1068.1,85.92 1066.07,85.611 1064.69,85.611C1062.98,85.611 1061.41,86.193 1060,87.357C1058.29,88.774 1057.43,90.61 1057.43,92.864C1057.43,94.609 1059,97.972 1062.12,102.953C1065.25,107.934 1066.81,112.514 1066.81,116.695C1066.81,122.767 1064.5,127.747 1059.89,131.637C1055.49,135.382 1050.05,137.254 1043.58,137.254C1037.62,137.254 1033.22,136.836 1030.38,136C1030.06,134.328 1029.49,131.601 1028.69,127.82C1028.18,125.784 1027.48,123.076 1026.57,119.695C1030.57,120.676 1033.26,121.167 1034.64,121.167C1040.06,121.167 1042.76,119.113 1042.76,115.005C1042.76,112.024 1041.67,109.352 1039.49,106.988C1035.93,103.862 1032.37,100.717 1028.8,97.554C1021.89,91.446 1018.44,84.194 1018.44,75.796C1018.44,67.034 1021.71,60.399 1028.26,55.891C1033.96,51.965 1041.56,50.001 1051.05,50.001C1056.43,50.001 1062.47,50.783 1069.16,52.346L1070.79,86.539Z" style="fill:rgb(255,0,0);"/>
            <path d="M1144.46,52.368C1144.49,51.595 1144.21,50.842 1143.68,50.283C1143.14,49.724 1142.4,49.408 1141.63,49.408L1073.79,49.408C1073.02,49.408 1072.29,49.722 1071.75,50.277C1071.22,50.832 1070.93,51.58 1070.97,52.35L1072.33,86.651C1072.36,87.432 1072.71,88.166 1073.31,88.678C1073.9,89.19 1074.67,89.434 1075.45,89.352L1083.16,88.544C1083.16,88.544 1088.96,88.324 1088.96,88.324C1089.28,92.642 1089.59,97.047 1089.89,101.538C1090.69,117.254 1091.23,128.778 1091.53,136.112C1091.59,137.63 1092.83,138.829 1094.35,138.829L1120.75,138.829C1122.24,138.829 1123.48,137.662 1123.57,136.167C1124.48,120.756 1125.13,109.067 1125.53,101.1C1125.92,95.314 1126.22,91.045 1126.44,88.293C1129.32,88.376 1131.51,88.458 1133,88.541C1136.04,88.859 1138.24,89.123 1139.62,89.335C1140.41,89.457 1141.22,89.236 1141.84,88.728C1142.46,88.219 1142.84,87.471 1142.88,86.669L1144.46,52.368ZM1141.63,52.237L1140.05,86.539C1138.63,86.32 1136.36,86.048 1133.23,85.721C1131.31,85.611 1128.18,85.502 1123.85,85.393C1123.64,87.538 1123.25,92.719 1122.71,100.935C1122.31,108.897 1121.65,120.585 1120.75,136L1094.35,136C1094.06,128.656 1093.52,117.113 1092.72,101.372C1092.35,95.918 1091.97,90.592 1091.57,85.393L1082.95,85.721L1075.16,86.539L1073.79,52.237L1141.63,52.237Z" style="fill:rgb(255,0,0);"/>
            <path d="M1185.52,52.372C1185.56,51.599 1185.28,50.845 1184.74,50.285C1184.21,49.725 1183.47,49.408 1182.69,49.408L1144.85,49.408C1144.08,49.408 1143.34,49.724 1142.81,50.281C1142.27,50.839 1141.99,51.591 1142.02,52.362L1145.73,136.125C1145.8,137.638 1147.04,138.829 1148.56,138.829L1179.15,138.829C1180.68,138.829 1181.93,137.619 1181.98,136.093C1182.52,119.567 1183,106.508 1183.39,96.917C1183.39,96.917 1185.52,52.372 1185.52,52.372ZM1182.69,52.237L1180.57,96.791C1180.17,106.389 1179.7,119.458 1179.15,136L1148.56,136L1144.85,52.237L1182.69,52.237Z" style="fill:rgb(255,0,0);"/>
            <path d="M1227.84,52.372C1227.88,51.599 1227.6,50.845 1227.06,50.285C1226.53,49.725 1225.79,49.408 1225.01,49.408L1187.17,49.408C1186.39,49.408 1185.66,49.724 1185.12,50.281C1184.59,50.839 1184.31,51.591 1184.34,52.362L1188.05,136.125C1188.12,137.638 1189.36,138.829 1190.88,138.829L1221.47,138.829C1223,138.829 1224.25,137.619 1224.3,136.093C1224.84,119.567 1225.31,106.508 1225.71,96.917C1225.71,96.917 1227.84,52.372 1227.84,52.372ZM1225.01,52.237L1222.89,96.791C1222.49,106.389 1222.01,119.458 1221.47,136L1190.88,136L1187.17,52.237L1225.01,52.237Z" style="fill:rgb(255,0,0);"/>
            <path d="M1242.57,116.577C1241.78,116.996 1241.03,117.481 1240.32,118.03C1237.16,120.48 1235.6,123.641 1235.6,127.493C1235.6,131.283 1237.18,134.468 1240.42,137.003C1243.4,139.332 1246.93,140.52 1251.03,140.52C1254.85,140.52 1258.24,139.338 1261.19,136.984C1264.37,134.446 1265.91,131.302 1265.91,127.602C1265.91,123.782 1264.36,120.584 1261.2,118.037C1261.19,118.034 1261.19,118.031 1261.19,118.027C1258.37,115.782 1254.99,114.63 1251.03,114.63C1250.13,114.63 1249.27,114.681 1248.43,114.784C1249.11,114.621 1249.85,114.461 1250.65,114.301C1254.26,113.699 1256.56,113.344 1257.59,113.238C1258.57,113.137 1259.43,112.53 1259.85,111.638C1260.28,110.746 1260.2,109.697 1259.66,108.872C1259.21,108.19 1259.01,107.379 1258.98,106.455C1259.07,106.276 1259.41,105.602 1259.77,105.084C1261,103.307 1263.16,100.876 1266.23,97.772C1271.75,92.202 1275.05,88.681 1276.17,87.227C1276.18,87.222 1276.18,87.217 1276.18,87.212C1280.03,82.142 1281.88,77.048 1281.88,71.978C1281.88,65.299 1280.04,59.983 1276.52,55.975C1271.44,50.197 1262.63,47.063 1249.93,47.063C1243.87,47.063 1238.25,47.935 1233.06,49.662C1231.96,50.028 1231.2,51.024 1231.13,52.179L1229.44,80.645C1229.38,81.659 1229.87,82.627 1230.72,83.182C1231.57,83.737 1232.65,83.794 1233.56,83.33C1236.03,82.065 1238.43,81.406 1240.77,81.406C1242.01,81.406 1243.07,81.814 1243.95,82.647C1244.8,83.451 1245.2,84.482 1245.2,85.721C1245.2,87.64 1244.09,90.381 1242.13,94.031C1239.59,98.736 1238.38,103.012 1238.38,106.825C1238.38,109.669 1238.95,112.364 1240.1,114.912C1240.42,115.622 1241.02,116.17 1241.76,116.425C1242.02,116.516 1242.3,116.567 1242.57,116.577ZM1263.08,127.602C1263.08,130.438 1261.86,132.828 1259.42,134.773C1256.99,136.718 1254.19,137.691 1251.03,137.691C1247.61,137.691 1244.65,136.718 1242.16,134.773C1239.67,132.828 1238.43,130.401 1238.43,127.493C1238.43,124.548 1239.64,122.14 1242.06,120.267C1244.47,118.395 1247.46,117.459 1251.03,117.459C1254.3,117.459 1257.1,118.386 1259.42,120.24C1261.86,122.203 1263.08,124.657 1263.08,127.602ZM1279.06,71.978C1279.06,76.486 1277.35,80.994 1273.93,85.502C1272.84,86.92 1269.6,90.347 1264.22,95.782C1258.84,101.217 1256.15,104.716 1256.15,106.279C1256.15,107.879 1256.53,109.261 1257.3,110.424C1256.24,110.533 1253.86,110.897 1250.15,111.515C1246.7,112.205 1244.21,112.951 1242.68,113.751C1241.7,111.569 1241.21,109.261 1241.21,106.825C1241.21,103.407 1242.35,99.59 1244.62,95.373C1246.89,91.156 1248.03,87.938 1248.03,85.721C1248.03,83.648 1247.32,81.94 1245.9,80.594C1244.48,79.249 1242.77,78.577 1240.77,78.577C1238.01,78.577 1235.17,79.322 1232.27,80.813L1233.96,52.346C1238.86,50.71 1244.19,49.892 1249.93,49.892C1269.35,49.892 1279.06,57.254 1279.06,71.978Z" style="fill:rgb(255,0,0);"/>
        </g>
        <g transform="matrix(0.706911,0,0,0.706911,-4.80832,146.945)">
            <text x="242px" y="136px" style="font-family:'ShowcardGothic-Reg', 'Showcard Gothic', fantasy;font-size:111.684px;fill:url(#_Linear2);">CE SPUN Ghibistii?</text>
            <path d="M305.858,86.539C303.859,85.92 301.296,85.611 298.169,85.611C292.352,85.611 287.626,87.138 283.99,90.192C279.882,93.61 277.828,98.536 277.828,104.971C277.828,109.988 279.455,114.105 282.709,117.322C285.963,120.54 290.225,122.149 295.497,122.149C299.096,122.149 302.514,121.258 305.749,119.476C305.386,120.967 304.768,123.712 303.895,127.711C303.386,130.365 302.895,133.128 302.423,136C298.351,137.563 293.134,138.345 286.772,138.345C275.247,138.345 265.395,134.473 257.215,126.729C248.344,118.295 243.909,107.316 243.909,93.791C243.909,81.285 247.726,71.178 255.361,63.471C263.504,55.255 274.756,51.147 289.117,51.147C296.024,51.147 301.023,51.546 304.113,52.346L305.858,86.539ZM302.848,83.131C301.444,82.991 299.885,82.933 298.169,82.976C295.153,83.051 292.414,83.482 289.95,84.291C287.129,85.219 284.653,86.597 282.539,88.464C280.149,90.556 278.384,93.093 277.297,96.106C276.358,98.708 275.893,101.657 275.971,104.971C276.031,107.647 276.5,110.08 277.395,112.27C278.343,114.59 279.74,116.647 281.62,118.424C283.507,120.208 285.67,121.523 288.131,122.345C290.349,123.085 292.801,123.442 295.497,123.381C297.411,123.338 299.27,123.063 301.076,122.546C302.187,122.229 303.278,121.825 304.349,121.33C304.349,121.33 303.079,127.533 303.079,127.533C303.077,127.54 303.076,127.547 303.074,127.554L301.819,135.516C299.729,136.322 297.335,136.927 294.636,137.332C292.25,137.689 289.629,137.891 286.772,137.937C281.084,138.014 275.791,137.145 270.902,135.303C265.93,133.429 261.379,130.553 257.237,126.706C252.682,122.372 249.253,117.384 247.088,111.688C245.047,106.319 244.147,100.339 244.257,93.791C244.436,87.861 245.442,82.502 247.348,77.725C249.376,72.644 252.427,68.266 256.431,64.531C260.72,60.549 265.808,57.768 271.662,56.024C276.861,54.476 282.668,53.788 289.117,53.984C292.531,53.993 295.466,54.102 297.923,54.306C299.212,54.412 300.363,54.543 301.373,54.704L302.848,83.131Z" style="fill:white;"/>
            <path d="M347.509,136L314.311,136L312.729,93.246C312.439,83.466 311.73,69.797 310.603,52.237L367.917,52.237L365.572,86.757C364.227,86.539 361.318,86.157 356.847,85.611C353.793,85.321 350.448,85.139 346.813,85.066L345.995,95.482C349.994,95.591 356.519,95.5 365.572,95.209C365.172,96.554 364.536,99.063 363.663,102.735C363.154,104.953 362.7,107.516 362.3,110.424C361.246,110.17 358.61,109.842 354.393,109.442C352.429,109.333 349.521,109.297 345.667,109.333L345.122,121.494C347.849,121.458 352.866,121.222 360.173,120.785C361.555,120.676 363.827,120.24 366.99,119.476C366.699,120.603 366.026,123.312 364.972,127.602C364.463,129.82 363.845,132.619 363.118,136L348.151,136L347.857,136C355.954,136.003 362.479,135.951 363.074,135.946L364.855,127.575L366.715,119.754C365.273,120.114 364.024,120.401 362.966,120.615C361.817,120.847 360.893,120.994 360.195,121.056L345.128,121.957C345.001,121.959 344.878,121.908 344.789,121.817C344.701,121.725 344.654,121.601 344.659,121.473L345.038,109.305C345.053,108.971 345.327,108.707 345.661,108.703L354.435,108.674C354.445,108.675 354.455,108.675 354.465,108.676C356.815,108.86 358.676,109.031 360.051,109.186C360.624,109.251 361.115,109.314 361.524,109.374C361.658,108.337 361.799,107.345 361.948,106.399C362.169,105.002 362.407,103.704 362.662,102.505L364.08,96.455C360.166,96.649 356.755,96.793 353.846,96.888C350.587,96.995 347.956,97.038 345.953,97.022C345.531,97.01 345.132,96.826 344.849,96.512C344.567,96.198 344.426,95.782 344.459,95.361L345.08,84.93C345.152,84.012 345.927,83.31 346.847,83.328C348.609,83.33 350.303,83.36 351.931,83.415C353.711,83.475 355.409,83.568 357.029,83.691L363.573,84.418L364.952,55.067L313.566,55.082C313.827,61.464 314.058,67.302 314.191,72.606C314.396,80.744 314.417,87.601 314.391,93.185C314.391,93.185 314.392,106.944 314.483,118.869C314.543,126.853 314.65,134.004 314.675,135.637C316.788,135.681 327.749,135.9 338.714,135.971C341.706,135.99 344.697,135.999 347.509,136Z" style="fill:white;"/>
            <path d="M446.881,86.539C444.19,85.92 442.155,85.611 440.773,85.611C439.064,85.611 437.501,86.193 436.083,87.357C434.374,88.774 433.52,90.61 433.52,92.864C433.52,94.609 435.083,97.972 438.21,102.953C441.337,107.934 442.9,112.514 442.9,116.695C442.9,122.767 440.591,127.747 435.974,131.637C431.575,135.382 426.14,137.254 419.669,137.254C413.706,137.254 409.307,136.836 406.472,136C406.145,134.328 405.581,131.601 404.781,127.82C404.272,125.784 403.563,123.076 402.654,119.695C406.653,120.676 409.344,121.167 410.725,121.167C416.142,121.167 418.851,119.113 418.851,115.005C418.851,112.024 417.76,109.352 415.579,106.988C412.016,103.862 408.453,100.717 404.89,97.554C397.983,91.446 394.529,84.194 394.529,75.796C394.529,67.034 397.801,60.399 404.345,55.891C410.053,51.965 417.651,50.001 427.14,50.001C432.52,50.001 438.555,50.783 445.245,52.346L446.881,86.539ZM443.883,83.16C443.8,83.149 443.718,83.139 443.637,83.129C442.502,82.992 441.548,82.929 440.773,82.95C439.577,82.982 438.434,83.197 437.353,83.641C436.349,84.054 435.383,84.625 434.482,85.406C434.479,85.409 434.475,85.412 434.472,85.414C433.339,86.408 432.486,87.522 431.942,88.785C431.412,90.017 431.126,91.371 431.167,92.864C431.193,93.843 431.527,95.233 432.342,96.985C433.195,98.816 434.562,101.173 436.473,104.043C437.874,106.154 438.978,108.186 439.761,110.157C440.666,112.436 441.165,114.612 441.216,116.695C441.284,119.485 440.838,122.038 439.835,124.353C438.819,126.699 437.264,128.805 435.159,130.669C435.157,130.671 435.155,130.672 435.154,130.673C433.044,132.559 430.67,133.989 428.013,134.938C425.476,135.845 422.695,136.326 419.669,136.39C416.627,136.454 413.995,136.404 411.77,136.229C409.868,136.08 408.268,135.843 406.972,135.518L405.213,127.712L403.08,120.1C404.776,120.488 406.223,120.786 407.424,120.994C408.891,121.249 409.991,121.371 410.725,121.362C413.168,121.331 415.06,120.891 416.407,120.051C418.094,119.001 418.935,117.324 418.912,115.005C418.9,113.477 418.602,112.033 418.023,110.67C417.47,109.366 416.66,108.135 415.587,106.981L404.935,97.503C401.65,94.485 399.164,91.225 397.534,87.689C395.834,84.002 395.079,80.032 395.205,75.796C395.364,71.689 396.239,68.099 397.859,65.022C399.528,61.851 402.018,59.28 405.277,57.244C408.278,55.376 411.781,54.125 415.774,53.374C419.203,52.729 422.984,52.494 427.14,52.655C429.879,52.714 432.783,53.029 435.871,53.486C437.994,53.8 440.203,54.18 442.495,54.663C442.495,54.663 443.884,83.16 443.884,83.16L443.883,83.16Z" style="fill:white;"/>
            <path d="M521.809,85.284C521.809,95.609 518.51,103.871 511.911,110.07C505.313,116.268 496.56,119.367 485.654,119.367L484.999,136L454.952,136L453.37,95.373C452.898,84.903 452.152,70.524 451.134,52.237C456.806,51.11 465.113,50.547 476.056,50.547C489.398,50.547 500.087,53.219 508.121,58.563C517.247,64.634 521.809,73.541 521.809,85.284ZM518.98,85.284C519.105,89.911 518.541,94.111 517.218,97.886C515.801,101.929 513.569,105.487 510.482,108.548C507.29,111.7 503.527,114.07 499.172,115.635C495.149,117.081 490.645,117.865 485.654,117.987C484.912,117.987 484.303,118.572 484.274,119.313L484.029,135.033C484.029,135.033 455.329,135.593 455.329,135.593C455.202,133.342 454.557,121.778 454.074,111.621C453.663,102.988 453.379,95.373 453.379,95.373C453.379,95.373 453.379,95.373 453.379,95.372C453.197,89.433 452.865,82.242 452.627,73.785C452.452,67.581 452.369,60.708 452.211,53.149C454.728,52.808 457.708,52.592 461.165,52.497C465.426,52.381 470.379,52.466 476.056,52.726C481.963,52.94 487.281,53.764 492.093,54.945C497.622,56.302 502.46,58.206 506.538,60.943C510.756,63.745 513.911,67.205 515.979,71.345C517.987,75.366 518.974,80.015 518.98,85.284ZM502.007,94.446C501.493,90.533 500.09,87.81 497.378,86.298C495.318,85.15 492.62,84.579 489.089,84.997L486.547,85.424C486.213,85.467 485.961,85.747 485.951,86.083C485.951,86.083 486.203,89.214 486.298,92.969C486.335,94.457 486.353,96.039 486.299,97.554C486.27,98.344 486.209,99.114 486.133,99.841C486.047,100.674 485.937,101.437 485.825,102.125C485.522,103.978 485.243,105.165 485.243,105.165C485.236,105.398 485.326,105.625 485.492,105.79C485.658,105.955 485.884,106.044 486.118,106.036C489.5,106.648 492.217,106.572 494.61,105.988C495.434,105.788 496.164,105.476 496.844,105.086C500.374,103.058 501.996,99.279 502.007,94.446ZM499.178,94.446C499.178,88.774 495.815,85.939 489.089,85.939C488.289,85.939 487.471,85.993 486.635,86.102L486.09,105.189C494.815,104.898 499.178,101.317 499.178,94.446Z" style="fill:white;"/>
            <path d="M599.246,52.237L597.992,87.52C597.628,97.591 597.446,112.823 597.446,133.219C588.14,136.564 578.651,138.236 568.98,138.236C557.056,138.236 547.985,135.855 541.768,131.092C536.497,127.057 532.77,120.767 530.589,112.224C529.317,107.316 528.117,98.336 526.99,85.284C525.899,73.214 525.227,62.199 524.972,52.237L560.146,52.237C559.964,57.036 559.746,64.853 559.491,75.686C559.382,81.721 559.419,90.283 559.601,101.372C559.637,109.806 560.364,115.496 561.782,118.44C563.272,121.567 566.254,123.13 570.725,123.13C571.998,123.13 573.416,122.767 574.979,122.04C574.979,114.55 574.761,102.644 574.324,86.32C573.961,78.14 573.288,66.779 572.307,52.237L599.246,52.237ZM596.365,55.069L595.769,87.441C595.675,92.337 595.646,98.446 595.674,105.773C595.701,113.295 595.785,122.098 595.939,132.186C591.739,133.712 587.497,134.892 583.21,135.721C578.518,136.628 573.776,137.119 568.98,137.193C562.565,137.279 556.98,136.661 552.224,135.325C548.305,134.224 544.952,132.643 542.169,130.569C542.169,130.569 542.169,130.569 542.169,130.569C539.37,128.477 537.003,125.741 535.065,122.361C533.382,119.428 532.022,116.015 530.982,112.123C530.982,112.123 530.982,112.122 530.982,112.122C530.308,109.632 529.637,106.084 528.984,101.477C528.357,97.049 527.75,91.647 527.147,85.271C527.147,85.27 527.147,85.27 527.147,85.27C526.59,79.533 526.119,74.035 525.765,68.774C525.374,62.973 525.122,57.461 524.973,52.239C525.118,52.239 536.346,52.247 546.076,52.334C552.622,52.392 558.488,52.491 559.849,52.515L558.771,75.673C558.648,78.536 558.55,81.964 558.46,85.964C558.361,90.407 558.273,95.547 558.211,101.394C558.107,105.56 558.197,109.08 558.466,111.946C558.767,115.168 559.334,117.598 560.076,119.262C561.022,121.405 562.566,122.962 564.641,123.998C566.289,124.821 568.316,125.265 570.725,125.334C571.439,125.353 572.189,125.274 572.978,125.116C573.914,124.928 574.905,124.599 575.957,124.143C576.775,123.762 577.299,122.942 577.299,122.04C577.412,116.928 577.55,109.766 577.47,100.545C577.432,96.228 577.298,91.462 577.182,86.244C577.181,86.227 577.181,86.21 577.18,86.193C577.009,82.338 576.77,77.779 576.461,72.515C576.159,67.377 575.789,61.567 575.355,55.085L596.365,55.069Z" style="fill:white;"/>
            <path d="M670.739,52.237C670.23,59.581 669.521,72.396 668.612,90.683C668.067,104.135 667.612,119.604 667.249,137.091C662.486,133.346 655.233,127.766 645.49,120.349C641.273,117.404 634.983,112.987 626.622,107.097L626.076,136L608.517,136C608.226,128.62 607.553,114.696 606.499,94.228C605.59,77.65 604.663,63.653 603.718,52.237L631.093,52.237L651.38,71.433C651.38,67.034 651.307,63.58 651.162,61.072C651.052,58.854 650.834,55.909 650.507,52.237L670.739,52.237ZM667.778,55.069C667.633,58.405 667.475,62.539 667.305,67.473C667.085,73.844 666.844,81.543 666.582,90.582C666.581,90.588 666.581,90.594 666.581,90.601C666.426,97.776 666.308,105.519 666.225,113.838C666.16,120.461 666.116,127.443 666.096,134.79C666.096,134.791 645.914,119.792 645.914,119.792C645.907,119.786 645.899,119.78 645.891,119.775L626.84,106.787C626.725,106.707 626.575,106.696 626.45,106.759C626.325,106.823 626.245,106.95 626.242,107.09L625.998,135.921C625.998,135.921 608.521,135.995 608.521,135.995C608.369,131.479 608.025,124.519 607.675,115.106C607.453,109.126 607.27,102.159 607.009,94.201C607.009,94.201 607.009,94.2 607.009,94.2C606.733,83.251 606.392,73.436 606.058,64.728C605.914,60.984 605.779,57.451 605.63,54.122C605.63,54.122 629.948,54.885 629.948,54.885C630.94,55.873 632.899,57.812 635.228,60.059C641.148,65.771 649.415,73.509 649.415,73.509C650.244,74.294 651.461,74.51 652.51,74.058C653.558,73.607 654.238,72.575 654.238,71.433L654.013,60.916C654.013,60.916 653.576,55.082 653.576,55.082L667.778,55.069Z" style="fill:white;"/>
            <path d="M770.48,100.172C770.116,103.262 769.571,109.097 768.844,117.677C768.48,122.803 768.135,128.874 767.808,135.891C762.936,137.309 755.829,138.018 746.485,138.018C732.598,138.018 721.309,134.891 712.62,128.638C702.368,121.185 697.242,110.097 697.242,95.373C697.242,81.267 701.732,70.251 710.712,62.326C719.146,54.873 730.253,51.147 744.031,51.147C749.23,51.147 754.811,51.546 760.773,52.346L763.772,86.757C761.373,85.848 757.955,85.393 753.52,85.393C747.885,85.393 742.795,87.12 738.251,90.574C733.161,94.464 730.616,99.408 730.616,105.407C730.616,111.078 732.779,115.459 737.106,118.549C740.741,121.167 744.94,122.403 749.703,122.258L748.83,111.297C748.612,109.042 748.121,105.334 747.358,100.172L770.48,100.172ZM767.438,103.004L766.372,117.502L765.752,134.279C763.854,134.774 761.656,135.181 759.155,135.495C755.543,135.948 751.321,136.217 746.485,136.304C740.16,136.419 734.375,135.87 729.127,134.639C723.124,133.231 717.829,130.948 713.243,127.772C707.971,124.064 704.036,119.372 701.458,113.684C699.07,108.417 697.838,102.312 697.74,95.373C697.658,88.699 698.588,82.708 700.556,77.406C702.722,71.569 706.138,66.571 710.776,62.399C710.776,62.399 710.776,62.399 710.776,62.399C715.203,58.449 720.37,55.511 726.3,53.649C731.611,51.983 737.528,51.189 744.031,51.208C746.723,51.239 749.516,51.372 752.41,51.626C755.024,51.856 757.719,52.186 760.497,52.6C760.497,52.6 762.509,85.094 762.509,85.094C761.724,84.867 760.862,84.671 759.924,84.504C758.09,84.178 755.958,83.976 753.52,83.894C750.506,83.791 747.63,84.18 744.877,85.015C742.119,85.851 739.505,87.169 737.007,88.937C737.005,88.938 737.004,88.939 737.002,88.941C734.163,90.97 732.03,93.331 730.534,95.969C728.942,98.778 728.128,101.928 728.024,105.407C727.954,108.627 728.529,111.495 729.691,114.017C730.926,116.697 732.86,118.973 735.449,120.869C737.557,122.391 739.843,123.509 742.295,124.217C744.639,124.895 747.137,125.196 749.79,125.115C750.572,125.091 751.31,124.748 751.832,124.165C752.354,123.582 752.615,122.811 752.553,122.031L751.678,111.07C751.677,111.054 751.676,111.037 751.674,111.021L750.611,103.019L767.438,103.004Z" style="fill:white;"/>
            <path d="M855.715,52.237C855.097,61.181 854.279,75.741 853.261,95.918C852.97,105.516 852.461,118.877 851.734,136L823.922,136L823.322,117.677C822.668,117.895 821.341,118.422 819.342,119.258C816.978,120.276 815.306,121.094 814.324,121.712L811.489,115.005C810.907,113.551 809.944,111.496 808.599,108.843L808.053,136L777.351,136L775.77,95.918C775.442,85.484 774.624,70.924 773.316,52.237L811.598,52.237L809.035,103.825C811.689,104.08 814.234,104.153 816.669,104.044C818.233,104.007 820.341,103.862 822.995,103.607L820.214,52.237L855.715,52.237ZM852.736,55.069C852.538,59.039 852.323,63.869 852.09,69.561C851.791,76.885 851.462,85.632 851.105,95.809C851.104,95.824 851.104,95.838 851.103,95.853L850.186,134.436C850.186,134.436 825.067,134.785 825.067,134.785C825.067,134.785 824.282,117.645 824.282,117.645C824.272,117.342 824.12,117.062 823.871,116.889C823.622,116.716 823.306,116.67 823.019,116.766L818.982,118.424C817.779,118.959 816.754,119.44 815.907,119.868C815.461,120.093 815.063,120.304 814.713,120.5C814.713,120.5 812.184,114.711 812.184,114.711C812.189,114.725 809.199,108.538 809.199,108.538C809.059,108.263 808.75,108.118 808.449,108.187C808.148,108.255 807.932,108.52 807.926,108.829L807.661,135.607C807.661,135.607 777.494,135.85 777.494,135.85C777.494,135.85 775.777,95.918 775.777,95.918C775.645,91.004 775.383,85.176 775.066,78.431C774.715,70.959 774.298,62.362 773.735,52.641C773.735,52.641 810.318,53.4 810.318,53.4C810.318,53.4 806.546,103.702 806.546,103.702C806.48,105.032 807.471,106.179 808.797,106.306C810.148,106.467 811.472,106.582 812.771,106.647C814.122,106.715 815.445,106.722 816.74,106.686C816.747,106.686 823.258,106.345 823.258,106.345C824.726,106.205 825.822,104.931 825.742,103.459C825.742,103.459 825.583,99.22 825.285,93.179C824.699,81.278 823.644,62.38 823.234,55.089L852.736,55.069Z" style="fill:white;"/>
            <path d="M863.56,128.426L860.187,52.237L898.033,52.237L895.906,96.791C895.506,106.389 895.033,119.458 894.488,136L863.895,136L863.768,133.127C863.849,134.818 863.906,135.828 863.914,135.979C863.914,135.979 894.013,135.527 894.013,135.527L894.433,96.729C894.434,96.726 894.434,96.723 894.434,96.72L895.155,55.068L863.095,55.082C863.126,56.816 863.159,59.242 863.173,62.176C863.219,72.171 862.898,87.99 862.978,102.47C863.011,108.476 863.104,114.237 863.244,119.243C863.342,122.732 863.455,125.851 863.56,128.426ZM863.679,131.03L863.766,133.077L863.567,128.59L863.679,131.03Z" style="fill:white;"/>
            <path d="M972.961,79.831C972.961,86.375 971.398,92.028 968.271,96.791C965.617,100.79 962.309,103.626 958.346,105.298C960.891,106.389 962.963,108.188 964.563,110.697C966.163,113.205 966.963,115.877 966.963,118.713C966.963,125.766 963.2,130.928 955.674,134.2C949.857,136.745 942.223,138.018 932.77,138.018C924.627,138.018 915.883,137.345 906.54,136C906.285,127.529 905.758,113.714 904.958,94.555C904.413,84.266 903.595,70.16 902.504,52.237C909.412,50.892 918.155,50.219 928.735,50.219C958.219,50.219 972.961,60.09 972.961,79.831ZM970.132,79.831C970.207,82.736 969.965,85.459 969.361,88.001C968.72,90.704 967.71,93.204 966.292,95.491C965.173,97.275 963.918,98.834 962.5,100.137C961.012,101.504 959.372,102.61 957.559,103.432C956.81,103.747 956.323,104.48 956.321,105.292C956.318,106.105 956.802,106.84 957.548,107.16C958.663,107.606 959.685,108.198 960.598,108.963C961.501,109.719 962.313,110.62 963.023,111.679C963.748,112.759 964.313,113.873 964.695,115.032C965.085,116.219 965.305,117.444 965.335,118.713C965.413,122.054 964.575,124.953 962.762,127.398C961.055,129.699 958.537,131.61 955.216,133.147C955.215,133.147 955.215,133.148 955.214,133.148C952.118,134.581 948.48,135.652 944.293,136.354C940.821,136.936 936.982,137.268 932.77,137.353C928.562,137.426 924.191,137.326 919.655,137.038C915.497,136.774 911.205,136.353 906.773,135.786C906.521,129.278 905.994,119.683 905.47,106.987C905.311,103.129 905.196,98.983 905.04,94.551C905.04,94.551 905.04,94.551 905.04,94.551C904.884,89.735 904.634,84.089 904.444,77.601C904.236,70.524 904.099,62.467 903.882,53.403C906.676,53.03 909.745,52.78 913.1,52.634C917.775,52.431 922.977,52.451 928.735,52.692C933.886,52.825 938.552,53.317 942.772,53.992C950.758,55.269 957.066,57.442 961.613,60.926C967.328,65.305 970.123,71.624 970.132,79.831ZM951.796,115.986C951.322,113.235 950.369,111.21 948.322,110.008C946.375,108.865 943.671,108.27 939.914,108.84L937.942,109.197C937.656,109.229 937.437,109.468 937.43,109.756C937.43,109.756 937.677,111.941 937.78,114.577C937.82,115.618 937.847,116.726 937.798,117.786C937.762,118.538 937.685,119.26 937.586,119.919C937.304,121.805 936.944,123.112 936.944,123.112C936.935,123.512 937.247,123.846 937.646,123.864C940.495,124.786 942.72,125.06 944.781,124.926C945.556,124.876 946.231,124.679 946.878,124.429C947.376,124.237 947.801,123.932 948.208,123.64C950.569,121.944 951.812,119.392 951.796,115.986ZM948.967,115.986C948.967,111.769 945.949,109.661 939.914,109.661C939.296,109.661 938.66,109.697 938.005,109.77L937.678,123.13C945.204,123.457 948.967,121.076 948.967,115.986ZM953.595,90.083C953.317,88.247 952.879,86.677 951.939,85.373C951.017,84.094 949.915,82.977 948.326,82.226C948.326,82.226 948.325,82.225 948.325,82.225C947.209,81.69 946.028,81.283 944.676,81.089C943.072,80.858 941.326,80.825 939.355,81.112C939.026,81.119 938.758,81.379 938.742,81.708C938.742,81.708 938.94,84.405 938.96,87.643C938.967,88.924 938.97,90.288 938.862,91.587C938.741,93.044 938.518,94.403 938.306,95.509C937.998,97.112 937.673,98.11 937.673,98.11C937.661,98.345 937.744,98.575 937.903,98.748C938.062,98.922 938.284,99.024 938.519,99.032C941.446,99.861 943.788,100.091 945.923,99.911C946.678,99.847 947.352,99.671 947.991,99.428C951.814,97.973 953.589,94.562 953.595,90.083ZM950.766,90.083C950.766,87.284 949.639,85.139 947.385,83.648C945.349,82.303 942.677,81.667 939.369,81.74L938.551,98.154C946.694,98.445 950.766,95.755 950.766,90.083Z" style="fill:white;"/>
            <path d="M979.933,128.426L976.56,52.237L1014.41,52.237L1012.28,96.791C1011.88,106.389 1011.41,119.458 1010.86,136L980.269,136L980.141,133.127C980.223,134.818 980.279,135.828 980.288,135.979C980.288,135.979 1010.39,135.527 1010.39,135.527L1010.81,96.729C1010.81,96.726 1010.81,96.723 1010.81,96.72L1011.53,55.068L979.469,55.082C979.499,56.816 979.532,59.242 979.546,62.176C979.593,72.171 979.271,87.99 979.351,102.47C979.384,108.476 979.478,114.237 979.618,119.243C979.715,122.732 979.828,125.851 979.933,128.426ZM980.053,131.03L980.139,133.077L979.941,128.59L980.053,131.03Z" style="fill:white;"/>
            <path d="M1070.79,86.539C1068.1,85.92 1066.07,85.611 1064.69,85.611C1062.98,85.611 1061.41,86.193 1060,87.357C1058.29,88.774 1057.43,90.61 1057.43,92.864C1057.43,94.609 1059,97.972 1062.12,102.953C1065.25,107.934 1066.81,112.514 1066.81,116.695C1066.81,122.767 1064.5,127.747 1059.89,131.637C1055.49,135.382 1050.05,137.254 1043.58,137.254C1037.62,137.254 1033.22,136.836 1030.38,136C1030.06,134.328 1029.49,131.601 1028.69,127.82C1028.18,125.784 1027.48,123.076 1026.57,119.695C1030.57,120.676 1033.26,121.167 1034.64,121.167C1040.06,121.167 1042.76,119.113 1042.76,115.005C1042.76,112.024 1041.67,109.352 1039.49,106.988C1035.93,103.862 1032.37,100.717 1028.8,97.554C1021.89,91.446 1018.44,84.194 1018.44,75.796C1018.44,67.034 1021.71,60.399 1028.26,55.891C1033.96,51.965 1041.56,50.001 1051.05,50.001C1056.43,50.001 1062.47,50.783 1069.16,52.346L1070.79,86.539ZM1067.8,83.16C1067.71,83.149 1067.63,83.139 1067.55,83.129C1066.41,82.992 1065.46,82.929 1064.69,82.95C1063.49,82.982 1062.35,83.197 1061.27,83.641C1060.26,84.054 1059.3,84.625 1058.39,85.406C1058.39,85.409 1058.39,85.412 1058.38,85.414C1057.25,86.408 1056.4,87.522 1055.86,88.785C1055.32,90.017 1055.04,91.371 1055.08,92.864C1055.11,93.843 1055.44,95.233 1056.26,96.985C1057.11,98.816 1058.47,101.173 1060.39,104.043C1061.79,106.154 1062.89,108.186 1063.67,110.157C1064.58,112.436 1065.08,114.612 1065.13,116.695C1065.2,119.485 1064.75,122.038 1063.75,124.353C1062.73,126.699 1061.18,128.805 1059.07,130.669C1059.07,130.671 1059.07,130.672 1059.07,130.673C1056.96,132.559 1054.58,133.989 1051.93,134.938C1049.39,135.845 1046.61,136.326 1043.58,136.39C1040.54,136.454 1037.91,136.404 1035.68,136.229C1033.78,136.08 1032.18,135.843 1030.88,135.518L1029.13,127.712L1026.99,120.1C1028.69,120.488 1030.14,120.786 1031.34,120.994C1032.8,121.249 1033.9,121.371 1034.64,121.362C1037.08,121.331 1038.97,120.891 1040.32,120.051C1042.01,119.001 1042.85,117.324 1042.82,115.005C1042.81,113.477 1042.51,112.033 1041.94,110.67C1041.38,109.366 1040.57,108.135 1039.5,106.981L1028.85,97.503C1025.56,94.485 1023.08,91.225 1021.45,87.689C1019.75,84.002 1018.99,80.032 1019.12,75.796C1019.28,71.689 1020.15,68.099 1021.77,65.022C1023.44,61.851 1025.93,59.28 1029.19,57.244C1032.19,55.376 1035.69,54.125 1039.69,53.374C1043.12,52.729 1046.9,52.494 1051.05,52.655C1053.79,52.714 1056.69,53.029 1059.78,53.486C1061.91,53.8 1064.12,54.18 1066.41,54.663C1066.41,54.663 1067.8,83.16 1067.8,83.16L1067.8,83.16Z" style="fill:white;"/>
            <path d="M1141.63,52.237L1140.05,86.539C1138.63,86.32 1136.36,86.048 1133.23,85.721C1131.31,85.611 1128.18,85.502 1123.85,85.393C1123.64,87.538 1123.25,92.719 1122.71,100.935C1122.31,108.897 1121.65,120.585 1120.75,136L1094.35,136C1094.06,128.656 1093.52,117.113 1092.72,101.372C1092.35,95.918 1091.97,90.592 1091.57,85.393L1082.95,85.721L1075.16,86.539L1073.79,52.237L1141.63,52.237ZM1138.74,55.088L1138.13,84.376C1138.13,84.376 1133.42,83.917 1133.42,83.917C1133.39,83.914 1133.37,83.912 1133.34,83.91L1123.89,83.795C1123.06,83.773 1122.35,84.4 1122.26,85.232L1121.47,100.873L1120.22,135.459C1120.22,135.459 1094.51,135.829 1094.51,135.829L1092.78,101.367L1091.92,85.367C1091.9,85.181 1091.74,85.039 1091.56,85.046L1082.93,85.128L1076,85.63C1076,85.63 1076.04,54.587 1076.04,54.587C1077.83,54.66 1080.58,54.763 1083.97,54.862C1086.95,54.948 1090.41,55.044 1094.14,55.084C1110.22,55.257 1131.17,55.14 1138.74,55.088L1138.74,55.088Z" style="fill:white;"/>
            <path d="M1148.22,128.426L1144.85,52.237L1182.69,52.237L1180.57,96.791C1180.17,106.389 1179.7,119.458 1179.15,136L1148.56,136L1148.43,133.127C1148.51,134.818 1148.57,135.828 1148.58,135.979C1148.58,135.979 1178.68,135.527 1178.68,135.527L1179.1,96.729C1179.1,96.726 1179.1,96.723 1179.1,96.72L1179.82,55.068L1147.76,55.082C1147.79,56.816 1147.82,59.242 1147.84,62.176C1147.88,72.171 1147.56,87.99 1147.64,102.47C1147.67,108.476 1147.77,114.237 1147.91,119.243C1148,122.732 1148.12,125.851 1148.22,128.426ZM1148.34,131.03L1148.43,133.077L1148.23,128.59L1148.34,131.03Z" style="fill:white;"/>
            <path d="M1190.54,128.426L1187.17,52.237L1225.01,52.237L1222.89,96.791C1222.49,106.389 1222.01,119.458 1221.47,136L1190.88,136L1190.75,133.127C1190.83,134.818 1190.89,135.828 1190.89,135.979C1190.89,135.979 1220.99,135.527 1220.99,135.527L1221.41,96.729C1221.41,96.726 1221.41,96.723 1221.41,96.72L1222.14,55.068L1190.08,55.082C1190.11,56.816 1190.14,59.242 1190.15,62.176C1190.2,72.171 1189.88,87.99 1189.96,102.47C1189.99,108.476 1190.08,114.237 1190.23,119.243C1190.32,122.732 1190.43,125.851 1190.54,128.426ZM1190.66,131.03L1190.75,133.077L1190.55,128.59L1190.66,131.03Z" style="fill:white;"/>
            <path d="M1263.08,127.602C1263.08,130.438 1261.86,132.828 1259.42,134.773C1256.99,136.718 1254.19,137.691 1251.03,137.691C1247.61,137.691 1244.65,136.718 1242.16,134.773C1239.67,132.828 1238.43,130.401 1238.43,127.493C1238.43,124.548 1239.64,122.14 1242.06,120.267C1244.47,118.395 1247.46,117.459 1251.03,117.459C1254.3,117.459 1257.1,118.386 1259.42,120.24C1261.86,122.203 1263.08,124.657 1263.08,127.602ZM1260.25,127.602C1260.36,128.63 1260.36,129.597 1260,130.507C1259.61,131.47 1259.06,132.4 1258.2,133.245C1257.21,134.201 1256.17,134.985 1254.98,135.527C1253.76,136.086 1252.46,136.463 1251.03,136.6C1249.44,136.731 1247.96,136.665 1246.55,136.329C1245.06,135.973 1243.68,135.359 1242.38,134.489C1241.15,133.625 1240.18,132.647 1239.53,131.519C1238.83,130.32 1238.48,128.97 1238.44,127.493C1238.47,126.013 1238.76,124.654 1239.44,123.483C1240.1,122.356 1241.1,121.446 1242.35,120.651C1243.68,119.899 1245.08,119.434 1246.63,119.231C1248.03,119.047 1249.45,119.202 1251.03,119.48C1252.38,119.686 1253.52,120.179 1254.64,120.698C1254.97,120.849 1255.26,121.033 1255.58,121.193C1256.3,121.557 1256.99,121.954 1257.63,122.468C1258.49,123.157 1259.15,123.918 1259.59,124.776C1260.03,125.63 1260.24,126.572 1260.25,127.602ZM1279.06,71.978C1279.06,76.486 1277.35,80.994 1273.93,85.502C1272.84,86.92 1269.6,90.347 1264.22,95.782C1258.84,101.217 1256.15,104.716 1256.15,106.279C1256.15,107.879 1256.53,109.261 1257.3,110.424C1256.24,110.533 1253.86,110.897 1250.15,111.515C1246.7,112.205 1244.21,112.951 1242.68,113.751C1241.7,111.569 1241.21,109.261 1241.21,106.825C1241.21,103.407 1242.35,99.59 1244.62,95.373C1246.89,91.156 1248.03,87.938 1248.03,85.721C1248.03,83.648 1247.32,81.94 1245.9,80.594C1244.48,79.249 1242.77,78.577 1240.77,78.577C1238.01,78.577 1235.17,79.322 1232.27,80.813L1233.96,52.346C1238.86,50.71 1244.19,49.892 1249.93,49.892C1269.35,49.892 1279.06,57.254 1279.06,71.978ZM1276.23,71.978C1276.3,74.037 1276,76.111 1275.25,78.2C1274.54,80.162 1273.51,82.14 1272.12,84.128C1271.58,84.891 1270.42,86.282 1268.65,88.284C1267.17,89.959 1265.28,92.04 1262.97,94.54C1260.17,97.565 1258.12,100.008 1256.81,101.885C1255.41,103.89 1254.81,105.38 1254.84,106.279C1254.87,107.166 1255,107.991 1255.23,108.754C1255.31,109.036 1255.41,109.311 1255.52,109.578L1249.97,110.601C1248.17,111.015 1246.64,111.434 1245.36,111.863C1244.45,112.169 1243.67,112.477 1243.01,112.79C1242.66,111.962 1242.37,111.113 1242.16,110.242C1241.9,109.136 1241.75,107.998 1241.73,106.825C1241.68,105.01 1241.96,103.072 1242.57,101.011C1243.08,99.256 1243.84,97.417 1244.83,95.488C1245.95,93.327 1246.77,91.427 1247.32,89.79C1247.85,88.182 1248.11,86.826 1248.1,85.721C1248.08,84.694 1247.9,83.759 1247.55,82.913C1247.18,82.041 1246.64,81.263 1245.91,80.582C1245.19,79.907 1244.4,79.405 1243.54,79.07C1242.69,78.739 1241.77,78.57 1240.77,78.568C1239.33,78.557 1237.87,78.756 1236.38,79.143C1235.07,79.482 1233.75,79.963 1232.41,80.604C1232.54,79.181 1233.28,70.971 1234.05,63.779C1234.53,59.366 1235.03,55.352 1235.26,53.504C1237.48,52.97 1239.77,52.621 1242.13,52.416C1244.66,52.199 1247.25,52.184 1249.93,52.346C1252.81,52.476 1255.44,52.829 1257.87,53.225C1262.16,53.926 1265.76,54.979 1268.59,56.702C1273.74,59.83 1276.22,64.949 1276.23,71.978Z" style="fill:white;"/>
        </g>
        <g transform="matrix(0.343792,0,0,0.265981,647.086,217.847)">
            <text x="242px" y="136px" style="font-family:'ShowcardGothic-Reg', 'Showcard Gothic', fantasy;font-size:111.684px;fill:url(#_Linear3);">,</text>
            <path d="M272.074,134.379C272.082,134.344 272.09,134.308 272.097,134.273C272.774,131.07 273.121,127.666 273.121,124.057C273.121,120.274 272.775,116.76 272.108,113.511C271.685,111.454 270.608,109.724 269.143,108.752C267.678,107.78 265.962,107.656 264.422,108.41C261.001,110.087 258.239,111.312 256.132,112.07C251.642,113.473 248.546,114.416 246.798,114.916C245.216,115.367 243.852,116.651 243.034,118.457C242.215,120.263 242.016,122.429 242.484,124.433C243.578,129.109 244.199,132.734 244.199,135.346C244.199,135.406 244.199,135.466 244.201,135.526C244.263,138.875 243.471,143.518 242.013,149.502C241.538,151.453 241.698,153.57 242.457,155.365C243.216,157.16 244.508,158.478 246.034,159.015C248.209,159.78 249.902,160.296 251.11,160.578C251.117,160.579 251.125,160.581 251.132,160.583C253.452,161.112 254.959,161.403 255.651,161.484C257.239,161.671 258.817,161.007 260.016,159.648C265.695,153.205 269.743,144.805 272.074,134.379ZM266.485,132.292C264.486,141.235 261.05,148.47 256.179,153.996C255.561,153.923 254.215,153.651 252.143,153.178C251.052,152.923 249.526,152.451 247.562,151.76C249.271,144.743 250.089,139.272 250.016,135.346C250.016,132.219 249.362,127.856 248.053,122.258C249.835,121.749 252.998,120.785 257.542,119.367C259.796,118.568 262.777,117.259 266.485,115.441C267.031,118.095 267.303,120.967 267.303,124.057C267.303,126.966 267.031,129.711 266.485,132.292Z" style="fill:rgb(255,0,0);"/>
        </g>
    </g>
    <defs>
        <linearGradient id="_Linear1" x1="0" y1="0" x2="1" y2="0" gradientUnits="userSpaceOnUse" gradientTransform="matrix(7.08242e-15,115.665,-13.7306,8.40757e-16,731.08,25.3524)"><stop offset="0" style="stop-color:rgb(255,127,0);stop-opacity:1"/><stop offset="1" style="stop-color:rgb(255,216,0);stop-opacity:1"/></linearGradient>
        <linearGradient id="_Linear2" x1="0" y1="0" x2="1" y2="0" gradientUnits="userSpaceOnUse" gradientTransform="matrix(7.08242e-15,115.665,-13.7306,8.40757e-16,731.08,25.3524)"><stop offset="0" style="stop-color:rgb(255,127,0);stop-opacity:1"/><stop offset="1" style="stop-color:rgb(255,216,0);stop-opacity:1"/></linearGradient>
        <linearGradient id="_Linear3" x1="0" y1="0" x2="1" y2="0" gradientUnits="userSpaceOnUse" gradientTransform="matrix(7.08242e-15,115.665,-13.7306,8.40757e-16,731.08,25.3524)"><stop offset="0" style="stop-color:rgb(255,127,0);stop-opacity:1"/><stop offset="1" style="stop-color:rgb(255,216,0);stop-opacity:1"/></linearGradient>
    </defs>
</svg>
