<?xml version="1.0" encoding="UTF-8" standalone="no"?>
<!DOCTYPE svg PUBLIC "-//W3C//DTD SVG 1.1//EN" "http://www.w3.org/Graphics/SVG/1.1/DTD/svg11.dtd">
<svg width="100%" height="100%" viewBox="0 0 693 86" version="1.1" xmlns="http://www.w3.org/2000/svg" xmlns:xlink="http://www.w3.org/1999/xlink" xml:space="preserve" xmlns:serif="http://www.serif.com/" style="fill-rule:evenodd;clip-rule:evenodd;stroke-linejoin:round;stroke-miterlimit:2;">
    <g transform="matrix(1,0,0,1,-165.613,-45.8674)">
        <g transform="matrix(0.706911,0,0,0.706911,-4.80832,29.9454)">
            <text x="242px" y="136px" style="font-family:'ShowcardGothic-Reg', 'Showcard Gothic', fantasy;font-size:111.684px;fill:url(#_Linear1);">CE SPUN ROMÂNII?</text>
            <path d="M305.023,89.242C305.905,89.514 306.866,89.339 307.595,88.772C308.324,88.205 308.731,87.317 308.684,86.394L306.939,52.202C306.876,50.968 306.019,49.917 304.822,49.607C301.585,48.77 296.352,48.317 289.117,48.317C273.887,48.317 261.988,52.766 253.351,61.479C253.351,61.48 253.351,61.48 253.351,61.48C245.209,69.699 241.079,80.455 241.079,93.791C241.079,108.165 245.838,119.816 255.265,128.78C255.267,128.781 255.268,128.783 255.27,128.784C263.989,137.038 274.487,141.174 286.772,141.174C293.548,141.174 299.1,140.306 303.437,138.641C304.375,138.281 305.051,137.451 305.214,136.459C305.68,133.628 306.164,130.903 306.666,128.286C307.528,124.332 308.138,121.621 308.498,120.147C308.764,119.057 308.36,117.912 307.469,117.23C306.578,116.548 305.368,116.457 304.385,116.998C301.579,118.543 298.617,119.319 295.497,119.319C291.054,119.319 287.44,118.022 284.698,115.311C281.978,112.621 280.657,109.164 280.657,104.971C280.657,99.5 282.307,95.273 285.8,92.367C285.803,92.364 285.807,92.361 285.81,92.359C288.974,89.701 293.108,88.441 298.169,88.441C300.955,88.441 303.241,88.691 305.023,89.242ZM305.858,86.539C303.859,85.92 301.296,85.611 298.169,85.611C292.352,85.611 287.626,87.138 283.99,90.192C279.882,93.61 277.828,98.536 277.828,104.971C277.828,109.988 279.455,114.105 282.709,117.322C285.963,120.54 290.225,122.149 295.497,122.149C299.096,122.149 302.514,121.258 305.749,119.476C305.386,120.967 304.768,123.712 303.895,127.711C303.386,130.365 302.895,133.128 302.423,136C298.351,137.563 293.134,138.345 286.772,138.345C275.247,138.345 265.395,134.473 257.215,126.729C248.344,118.295 243.909,107.316 243.909,93.791C243.909,81.285 247.726,71.178 255.361,63.471C263.504,55.255 274.756,51.147 289.117,51.147C296.024,51.147 301.023,51.546 304.113,52.346L305.858,86.539Z" style="fill:rgb(255,0,0);"/>
            <path d="M370.74,52.429C370.793,51.647 370.519,50.878 369.984,50.306C369.449,49.733 368.7,49.408 367.917,49.408L310.603,49.408C309.821,49.408 309.074,49.732 308.539,50.302C308.004,50.872 307.729,51.638 307.779,52.418C308.904,69.937 309.611,83.574 309.901,93.33L311.484,136.105C311.54,137.625 312.789,138.829 314.311,138.829L363.118,138.829C364.451,138.829 365.604,137.898 365.884,136.595C366.605,133.24 367.219,130.46 367.725,128.255C368.772,123.995 369.44,121.304 369.729,120.183C369.977,119.221 369.703,118.2 369.006,117.492C368.309,116.784 367.292,116.493 366.326,116.726C363.402,117.432 361.294,117.853 359.997,117.961C354.891,118.266 350.928,118.473 348.085,118.581C348.085,118.581 348.373,112.149 348.373,112.149C350.804,112.148 352.734,112.186 354.164,112.263C358.154,112.641 360.64,112.934 361.636,113.174C362.413,113.362 363.234,113.212 363.894,112.761C364.555,112.311 364.994,111.602 365.103,110.809C365.489,107.999 365.927,105.521 366.419,103.377C367.272,99.786 367.892,97.332 368.284,96.016C368.543,95.144 368.367,94.201 367.812,93.481C367.257,92.762 366.39,92.352 365.481,92.382C358.48,92.606 353.004,92.712 349.051,92.696C349.051,92.696 349.422,87.97 349.422,87.97C351.947,88.063 354.317,88.214 356.53,88.423C360.936,88.96 363.795,89.335 365.119,89.549C365.905,89.677 366.708,89.467 367.331,88.972C367.955,88.477 368.341,87.743 368.395,86.948L370.74,52.429ZM367.917,52.237L365.572,86.757C364.227,86.539 361.318,86.157 356.847,85.611C353.793,85.321 350.448,85.139 346.813,85.066L345.995,95.482C349.994,95.591 356.519,95.5 365.572,95.209C365.172,96.554 364.536,99.063 363.663,102.735C363.154,104.953 362.7,107.516 362.3,110.424C361.246,110.17 358.61,109.842 354.393,109.442C352.429,109.333 349.521,109.297 345.667,109.333L345.122,121.494C347.849,121.458 352.866,121.222 360.173,120.785C361.555,120.676 363.827,120.24 366.99,119.476C366.699,120.603 366.026,123.312 364.972,127.602C364.463,129.82 363.845,132.619 363.118,136L314.311,136L312.729,93.246C312.439,83.466 311.73,69.797 310.603,52.237L367.917,52.237Z" style="fill:rgb(255,0,0);"/>
            <path d="M446.247,89.296C447.11,89.494 448.016,89.277 448.696,88.709C449.375,88.141 449.749,87.288 449.707,86.403L448.071,52.211C448.01,50.948 447.12,49.879 445.889,49.591C438.962,47.973 432.711,47.172 427.14,47.172C416.975,47.172 408.856,49.354 402.741,53.56C402.741,53.56 402.74,53.561 402.74,53.561C395.42,58.604 391.7,65.995 391.7,75.796C391.7,85.004 395.442,92.977 403.016,99.674C406.539,102.802 410.067,105.915 413.594,109.011C415.196,110.789 416.022,112.778 416.022,115.005C416.022,115.859 415.876,116.568 415.426,117.081C414.544,118.083 412.929,118.338 410.725,118.338C409.458,118.338 406.997,117.847 403.329,116.947C402.357,116.708 401.332,117.001 400.632,117.716C399.932,118.431 399.662,119.463 399.922,120.429C400.818,123.763 401.519,126.439 402.024,128.457C402.814,132.192 403.371,134.887 403.695,136.543C403.898,137.579 404.66,138.415 405.672,138.714C408.68,139.601 413.343,140.083 419.669,140.083C426.873,140.083 432.911,137.961 437.808,133.792C443.083,129.347 445.729,123.646 445.729,116.695C445.729,112.064 444.069,106.966 440.606,101.449C438.84,98.635 437.593,96.375 436.887,94.658C436.571,93.891 436.349,93.305 436.349,92.864C436.349,91.505 436.856,90.394 437.885,89.538C438.761,88.821 439.718,88.441 440.773,88.441C442.012,88.441 443.834,88.742 446.247,89.296ZM446.881,86.539C444.19,85.92 442.155,85.611 440.773,85.611C439.064,85.611 437.501,86.193 436.083,87.357C434.374,88.774 433.52,90.61 433.52,92.864C433.52,94.609 435.083,97.972 438.21,102.953C441.337,107.934 442.9,112.514 442.9,116.695C442.9,122.767 440.591,127.747 435.974,131.637C431.575,135.382 426.14,137.254 419.669,137.254C413.706,137.254 409.307,136.836 406.472,136C406.145,134.328 405.581,131.601 404.781,127.82C404.272,125.784 403.563,123.076 402.654,119.695C406.653,120.676 409.344,121.167 410.725,121.167C416.142,121.167 418.851,119.113 418.851,115.005C418.851,112.024 417.76,109.352 415.579,106.988C412.016,103.862 408.453,100.717 404.89,97.554C397.983,91.446 394.529,84.194 394.529,75.796C394.529,67.034 397.801,60.399 404.345,55.891C410.053,51.965 417.651,50.001 427.14,50.001C432.52,50.001 438.555,50.783 445.245,52.346L446.881,86.539Z" style="fill:rgb(255,0,0);"/>
            <path d="M524.638,85.284C524.638,72.496 519.626,62.819 509.689,56.208C509.688,56.208 509.688,56.207 509.688,56.207C501.256,50.599 490.058,47.717 476.056,47.717C464.87,47.717 456.38,48.31 450.583,49.462C449.2,49.737 448.231,50.987 448.309,52.394C449.326,70.664 450.071,85.03 450.543,95.492C450.543,95.492 452.125,136.11 452.125,136.11C452.184,137.629 453.432,138.829 454.952,138.829L484.999,138.829C486.519,138.829 487.767,137.629 487.826,136.111L488.376,122.134C498.837,121.641 507.315,118.27 513.848,112.132C521.002,105.411 524.638,96.478 524.638,85.284ZM521.809,85.284C521.809,95.609 518.51,103.871 511.911,110.07C505.313,116.268 496.56,119.367 485.654,119.367L484.999,136L454.952,136L453.37,95.373C452.898,84.903 452.152,70.524 451.134,52.237C456.806,51.11 465.113,50.547 476.056,50.547C489.398,50.547 500.087,53.219 508.121,58.563C517.247,64.634 521.809,73.541 521.809,85.284ZM499.178,94.446C499.178,88.774 495.815,85.939 489.089,85.939C488.289,85.939 487.471,85.993 486.635,86.102L486.09,105.189C494.815,104.898 499.178,101.317 499.178,94.446ZM489.389,88.771C491.778,88.8 493.615,89.202 494.832,90.228C495.93,91.155 496.349,92.593 496.349,94.446C496.349,96.444 495.914,98.081 494.9,99.314C493.652,100.829 491.667,101.696 489.008,102.1L489.389,88.771Z" style="fill:rgb(255,0,0);"/>
            <path d="M602.074,52.338C602.101,51.57 601.815,50.825 601.282,50.273C600.749,49.72 600.014,49.408 599.246,49.408L572.307,49.408C571.523,49.408 570.775,49.733 570.24,50.305C569.705,50.878 569.431,51.646 569.484,52.428C570.463,66.927 571.134,78.259 571.497,86.421C571.896,101.349 572.112,112.573 572.145,120.093C571.647,120.229 571.175,120.301 570.725,120.301C567.585,120.301 565.383,119.419 564.336,117.223C564.334,117.22 564.333,117.216 564.331,117.213C563.015,114.48 562.463,109.186 562.43,101.359C562.43,101.348 562.43,101.337 562.429,101.325C562.248,90.283 562.212,81.757 562.32,75.745C562.574,64.934 562.792,57.134 562.973,52.344C563.002,51.576 562.717,50.829 562.184,50.275C561.651,49.721 560.915,49.408 560.146,49.408L524.972,49.408C524.209,49.408 523.479,49.716 522.946,50.262C522.414,50.809 522.124,51.547 522.144,52.309C522.4,62.324 523.075,73.399 524.172,85.533C525.317,98.802 526.555,107.931 527.848,112.925C530.214,122.189 534.332,128.962 540.048,133.338C546.665,138.407 556.288,141.065 568.98,141.065C578.976,141.065 588.784,139.338 598.403,135.881C599.527,135.478 600.276,134.412 600.276,133.219C600.276,112.869 600.456,97.67 600.819,87.622L602.074,52.338ZM599.246,52.237L597.992,87.52C597.628,97.591 597.446,112.823 597.446,133.219C588.14,136.564 578.651,138.236 568.98,138.236C557.056,138.236 547.985,135.855 541.768,131.092C536.497,127.057 532.77,120.767 530.589,112.224C529.317,107.316 528.117,98.336 526.99,85.284C525.899,73.214 525.227,62.199 524.972,52.237L560.146,52.237C559.964,57.036 559.746,64.853 559.491,75.686C559.382,81.721 559.419,90.283 559.601,101.372C559.637,109.806 560.364,115.496 561.782,118.44C563.272,121.567 566.254,123.13 570.725,123.13C571.998,123.13 573.416,122.767 574.979,122.04C574.979,114.55 574.761,102.644 574.324,86.32C573.961,78.14 573.288,66.779 572.307,52.237L599.246,52.237Z" style="fill:rgb(255,0,0);"/>
            <path d="M673.561,52.433C673.616,51.65 673.343,50.881 672.807,50.307C672.272,49.734 671.523,49.408 670.739,49.408L650.507,49.408C649.713,49.408 648.956,49.742 648.42,50.328C647.884,50.913 647.619,51.697 647.689,52.488C648.012,56.114 648.228,59.021 648.336,61.211C648.336,61.219 648.337,61.227 648.337,61.235C648.397,62.261 648.443,63.447 648.478,64.793C648.478,64.792 633.038,50.182 633.038,50.182C632.513,49.685 631.817,49.408 631.093,49.408L603.718,49.408C602.927,49.408 602.172,49.739 601.636,50.321C601.101,50.903 600.833,51.682 600.898,52.471C601.842,63.864 602.767,77.833 603.674,94.378C604.727,114.827 605.399,128.738 605.69,136.111C605.75,137.629 606.998,138.829 608.517,138.829L626.076,138.829C627.618,138.829 628.876,137.595 628.905,136.053L629.35,112.478C635.549,116.841 640.373,120.227 643.822,122.635C653.527,130.022 660.753,135.582 665.5,139.315C666.343,139.978 667.489,140.107 668.459,139.648C669.428,139.189 670.055,138.222 670.077,137.149C670.44,119.689 670.894,104.243 671.439,90.81C672.346,72.557 673.053,59.764 673.561,52.433ZM670.739,52.237C670.23,59.581 669.521,72.396 668.612,90.683C668.067,104.135 667.612,119.604 667.249,137.091C662.486,133.346 655.233,127.766 645.49,120.349C641.273,117.404 634.983,112.987 626.622,107.097L626.076,136L608.517,136C608.226,128.62 607.553,114.696 606.499,94.228C605.59,77.65 604.663,63.653 603.718,52.237L631.093,52.237L651.38,71.433C651.38,67.034 651.307,63.58 651.162,61.072C651.052,58.854 650.834,55.909 650.507,52.237L670.739,52.237Z" style="fill:rgb(255,0,0);"/>
            <path d="M735.261,127.841C736.243,129.672 737.087,131.172 737.794,132.339C737.815,132.374 737.837,132.409 737.86,132.443C741.571,138.009 743.969,141.456 745.046,142.792C745.878,143.825 747.315,144.141 748.504,143.553C752.07,141.788 755.869,139.987 759.902,138.15C765.623,135.683 769.324,134.143 771.006,133.534C771.935,133.198 772.621,132.402 772.817,131.434C773.012,130.465 772.689,129.465 771.963,128.795C767.845,124.994 764.771,121.93 762.747,119.595C760.276,116.475 758.374,114.021 757.03,112.216C761.093,110.046 764.575,106.991 767.471,103.045C767.474,103.041 767.477,103.037 767.48,103.033C771.576,97.387 773.636,90.91 773.636,83.594C773.636,73.997 770.888,66.347 765.543,60.589C757.795,52.243 744.313,47.827 724.945,47.827C716.603,47.827 707.379,48.358 697.272,49.424C695.767,49.582 694.653,50.899 694.745,52.41C695.906,71.351 696.651,86.173 696.977,96.877C696.977,96.886 696.978,96.895 696.978,96.904C697.706,115.131 698.27,128.211 698.67,136.143C698.746,137.648 699.988,138.829 701.496,138.829L732.198,138.829C733.729,138.829 734.982,137.611 735.026,136.081L735.261,127.841ZM733.634,118.484L733.018,119.475L732.996,119.497C733.134,119.255 733.354,118.852 733.577,118.371L732.852,116.913L732.743,116.913L732.671,119.451L732.722,119.662L732.665,119.627L732.198,136L701.496,136C701.096,128.075 700.532,115.005 699.805,96.791C699.478,86.066 698.733,71.215 697.569,52.237C707.567,51.183 716.692,50.656 724.945,50.656C755.52,50.656 770.807,61.635 770.807,83.594C770.807,90.283 768.935,96.209 765.19,101.372C761.882,105.88 757.737,109.115 752.757,111.078C753.811,112.714 756.41,116.15 760.555,121.385C762.627,123.785 765.79,126.948 770.044,130.874C768.335,131.492 764.572,133.055 758.755,135.564C754.683,137.418 750.848,139.236 747.249,141.017C746.195,139.708 743.85,136.327 740.214,130.874C738.679,128.337 736.485,124.208 733.634,118.484ZM746.049,95.373C746.049,91.919 744.595,89.447 741.686,87.956C739.541,86.866 736.851,86.393 733.616,86.539L733.288,105.189C736.306,105.189 738.996,104.516 741.359,103.171C744.486,101.426 746.049,98.827 746.049,95.373ZM743.22,95.373C743.22,97.739 742.123,99.505 739.98,100.701C739.973,100.705 739.967,100.708 739.96,100.712C738.794,101.376 737.531,101.834 736.172,102.096C736.172,102.096 736.395,89.412 736.395,89.412C737.919,89.55 739.255,89.895 740.4,90.476C742.309,91.456 743.22,93.105 743.22,95.373Z" style="fill:rgb(255,0,0);"/>
            <path d="M849.928,92.319C849.928,77.871 846.078,66.516 838.565,58.194C838.564,58.193 838.562,58.191 838.561,58.19C831.328,50.21 821.985,46.191 810.507,46.191C798.842,46.191 789.412,50.196 782.185,58.13C782.184,58.132 782.182,58.133 782.181,58.135C774.667,66.419 770.814,77.792 770.814,92.319C770.814,105.823 774.282,117.191 781.129,126.448C788.614,136.572 798.414,141.61 810.507,141.61C822.253,141.61 831.91,136.622 839.438,126.571C839.439,126.57 839.441,126.568 839.442,126.567C846.405,117.232 849.928,105.824 849.928,92.319ZM847.099,92.319C847.099,105.152 843.791,116.005 837.174,124.875C830.23,134.146 821.341,138.781 810.507,138.781C799.346,138.781 790.312,134.11 783.404,124.766C776.897,115.968 773.643,105.152 773.643,92.319C773.643,78.613 777.187,67.852 784.277,60.035C790.966,52.692 799.71,49.02 810.507,49.02C821.123,49.02 829.776,52.71 836.465,60.09C843.554,67.943 847.099,78.686 847.099,92.319ZM820.868,101.917C820.868,91.81 817.451,86.757 810.616,86.757C803.963,86.757 800.637,91.846 800.637,102.026C800.637,106.098 801.509,109.897 803.254,113.423C805.217,117.386 807.635,119.367 810.507,119.367C813.307,119.367 815.779,117.35 817.924,113.314C819.887,109.642 820.868,105.843 820.868,101.917ZM818.039,101.917C818.039,105.385 817.163,108.737 815.429,111.98C815.428,111.982 815.427,111.984 815.425,111.986C813.924,114.811 812.467,116.538 810.507,116.538C808.538,116.538 807.136,114.885 805.79,112.168C804.237,109.03 803.466,105.649 803.466,102.026C803.466,94.019 805.383,89.586 810.616,89.586C815.991,89.586 818.039,93.968 818.039,101.917Z" style="fill:rgb(255,0,0);"/>
            <path d="M942.192,52.425C942.244,51.644 941.97,50.876 941.435,50.304C940.9,49.733 940.152,49.408 939.369,49.408L910.793,49.408C909.66,49.408 908.636,50.084 908.191,51.127C905.909,56.475 904.038,60.564 902.573,63.39C900.036,68.089 897.992,71.799 896.433,74.532C894.105,70.577 892.187,67.044 890.682,63.932C888.045,58.044 886.189,53.793 885.108,51.162C884.672,50.101 883.638,49.408 882.491,49.408L851.243,49.408C850.453,49.408 849.698,49.739 849.162,50.321C848.626,50.903 848.359,51.682 848.424,52.47C849.765,68.71 850.69,82.523 851.198,93.907C851.924,113.706 852.415,127.766 852.669,136.086C852.716,137.615 853.968,138.829 855.497,138.829L875.129,138.829C876.668,138.829 877.924,137.599 877.957,136.061L878.328,118.736C878.328,118.736 894.194,139.724 894.194,139.724C894.741,140.447 895.601,140.865 896.508,140.846C897.414,140.828 898.257,140.377 898.775,139.632L913.058,119.078C913.058,119.078 913.418,136.06 913.418,136.06C913.451,137.599 914.708,138.829 916.247,138.829L935.988,138.829C937.532,138.829 938.791,137.591 938.817,136.046C939.071,120.516 939.451,106.546 939.959,94.136C940.939,73.953 941.683,60.049 942.192,52.425ZM939.369,52.237C938.86,59.872 938.115,73.796 937.133,94.01C936.624,106.443 936.242,120.44 935.988,136L916.247,136L915.701,110.315L896.451,138.018L875.674,110.533L875.129,136L855.497,136C855.242,127.675 854.752,113.605 854.025,93.791C853.516,82.376 852.589,68.524 851.243,52.237L882.491,52.237C883.581,54.891 885.454,59.181 888.108,65.107C890.144,69.324 892.925,74.305 896.451,80.049C898.015,77.577 900.887,72.469 905.067,64.725C906.558,61.853 908.467,57.691 910.793,52.237L939.369,52.237Z" style="fill:rgb(255,0,0);"/>
            <path d="M957.831,49.661C956.991,50.043 956.363,50.825 956.208,51.787C954.217,64.13 951.737,77.179 948.77,90.933C943.908,111.541 940.316,126.327 937.993,135.29C937.774,136.138 937.959,137.039 938.495,137.732C939.03,138.424 939.857,138.829 940.732,138.829L956.547,138.829C957.816,138.829 958.929,137.984 959.271,136.762L960.198,133.45L962.713,138.787C963.091,139.59 963.824,140.169 964.694,140.351C965.563,140.532 966.467,140.295 967.135,139.711C969.598,137.555 971.839,135.818 973.864,134.506C975.046,133.837 976.047,133.279 976.884,132.821C976.884,132.821 977.979,136.758 977.979,136.758C978.32,137.982 979.434,138.829 980.705,138.829L1010.53,138.829C1011.4,138.829 1012.22,138.431 1012.76,137.75C1013.29,137.069 1013.49,136.179 1013.28,135.336C1008.85,116.998 1005.39,102.38 1002.88,91.483C998.349,70.679 995.575,57.432 994.56,51.74C994.427,50.991 994.006,50.355 993.423,49.938C993.818,49.952 994.216,49.883 994.59,49.73C995.315,49.434 995.884,48.851 996.164,48.119L1000.2,37.54C1000.75,36.084 1000.03,34.453 998.574,33.892C994.121,32.174 990.518,30.599 987.768,29.159C983.131,26.412 979.819,24.367 977.822,23.011C976.857,22.357 975.591,22.361 974.63,23.021C970.713,25.714 967.49,27.737 964.957,29.08C959.817,31.436 956.163,33.042 953.984,33.899C952.541,34.467 951.824,36.091 952.376,37.54L956.412,48.119C956.67,48.798 957.179,49.349 957.831,49.661ZM1010.53,136L980.705,136L978.687,128.747C977.851,129.074 975.761,130.183 972.416,132.074C970.271,133.455 967.89,135.291 965.272,137.581L962.164,130.983C961.546,129.674 960.655,127.838 959.491,125.475L956.547,136L940.732,136C943.059,127.02 946.658,112.205 951.53,91.556C954.511,77.741 957.001,64.634 959.001,52.237L991.775,52.237C992.793,57.945 995.574,71.233 1000.12,92.101C1002.63,103.007 1006.1,117.641 1010.53,136ZM976.124,118.113C975.506,116.186 974.415,113.06 972.852,108.733C971.907,106.334 970.471,103.026 968.544,98.808C967.708,100.917 966.399,104.371 964.618,109.17C963.636,111.933 962.473,115.696 961.127,120.458C962.218,120.458 964.69,120.24 968.544,119.804C970.871,119.476 973.397,118.913 976.124,118.113ZM972.486,116.161C970.991,116.522 969.568,116.8 968.216,116.993C966.97,117.134 965.899,117.25 964.972,117.344C965.829,114.454 966.597,112.05 967.277,110.135C967.808,108.705 968.296,107.396 968.742,106.207C969.316,107.54 969.802,108.712 970.201,109.722C971.135,112.307 971.895,114.449 972.486,116.161ZM991.743,49.408L983.572,45.652C981.817,44.872 979.384,43.655 976.273,41.999C974.679,42.89 972.471,44.083 969.65,45.576C969.606,45.599 969.563,45.621 969.518,45.641C967.09,46.77 964.217,48.026 960.899,49.408L991.743,49.408ZM997.556,36.532L993.52,47.111L984.74,43.076C982.777,42.203 979.941,40.767 976.233,38.768C974.67,39.676 972.034,41.112 968.326,43.076C965.745,44.275 962.654,45.621 959.055,47.111L955.02,36.532C957.237,35.659 960.964,34.023 966.199,31.624C968.817,30.242 972.161,28.152 976.233,25.352C978.269,26.734 981.65,28.824 986.376,31.624C989.212,33.114 992.938,34.75 997.556,36.532Z" style="fill:rgb(255,0,0);"/>
            <path d="M1082.4,52.433C1082.45,51.65 1082.18,50.881 1081.64,50.307C1081.11,49.734 1080.36,49.408 1079.57,49.408L1059.34,49.408C1058.55,49.408 1057.79,49.742 1057.25,50.328C1056.72,50.913 1056.45,51.697 1056.52,52.488C1056.85,56.114 1057.06,59.021 1057.17,61.211C1057.17,61.219 1057.17,61.227 1057.17,61.235C1057.23,62.261 1057.28,63.447 1057.31,64.793C1057.31,64.792 1041.87,50.182 1041.87,50.182C1041.35,49.685 1040.65,49.408 1039.93,49.408L1012.55,49.408C1011.76,49.408 1011.01,49.739 1010.47,50.321C1009.94,50.903 1009.67,51.682 1009.73,52.471C1010.68,63.864 1011.6,77.833 1012.51,94.378C1013.56,114.827 1014.23,128.738 1014.52,136.111C1014.58,137.629 1015.83,138.829 1017.35,138.829L1034.91,138.829C1036.45,138.829 1037.71,137.595 1037.74,136.053L1038.18,112.478C1044.38,116.841 1049.21,120.227 1052.66,122.635C1062.36,130.022 1069.59,135.582 1074.33,139.315C1075.18,139.978 1076.32,140.107 1077.29,139.648C1078.26,139.189 1078.89,138.222 1078.91,137.149C1079.28,119.689 1079.73,104.243 1080.27,90.81C1081.18,72.557 1081.89,59.764 1082.4,52.433ZM1079.57,52.237C1079.06,59.581 1078.36,72.396 1077.45,90.683C1076.9,104.135 1076.45,119.604 1076.08,137.091C1071.32,133.346 1064.07,127.766 1054.32,120.349C1050.11,117.404 1043.82,112.987 1035.46,107.097L1034.91,136L1017.35,136C1017.06,128.62 1016.39,114.696 1015.33,94.228C1014.42,77.65 1013.5,63.653 1012.55,52.237L1039.93,52.237L1060.21,71.433C1060.21,67.034 1060.14,63.58 1060,61.072C1059.89,58.854 1059.67,55.909 1059.34,52.237L1079.57,52.237Z" style="fill:rgb(255,0,0);"/>
            <path d="M1124.72,52.372C1124.75,51.599 1124.47,50.845 1123.94,50.285C1123.4,49.725 1122.66,49.408 1121.89,49.408L1084.05,49.408C1083.27,49.408 1082.53,49.724 1082,50.281C1081.47,50.839 1081.18,51.591 1081.22,52.362L1084.93,136.125C1084.99,137.638 1086.24,138.829 1087.75,138.829L1118.35,138.829C1119.87,138.829 1121.12,137.619 1121.17,136.093C1121.72,119.567 1122.19,106.508 1122.59,96.917C1122.59,96.917 1124.72,52.372 1124.72,52.372ZM1121.89,52.237L1119.76,96.791C1119.36,106.389 1118.89,119.458 1118.35,136L1087.75,136L1084.05,52.237L1121.89,52.237Z" style="fill:rgb(255,0,0);"/>
            <path d="M1167.04,52.372C1167.07,51.599 1166.79,50.845 1166.26,50.285C1165.72,49.725 1164.98,49.408 1164.21,49.408L1126.36,49.408C1125.59,49.408 1124.85,49.724 1124.32,50.281C1123.79,50.839 1123.5,51.591 1123.54,52.362L1127.24,136.125C1127.31,137.638 1128.56,138.829 1130.07,138.829L1160.66,138.829C1162.19,138.829 1163.44,137.619 1163.49,136.093C1164.04,119.567 1164.51,106.508 1164.91,96.917C1164.91,96.917 1167.04,52.372 1167.04,52.372ZM1164.21,52.237L1162.08,96.791C1161.68,106.389 1161.21,119.458 1160.66,136L1130.07,136L1126.36,52.237L1164.21,52.237Z" style="fill:rgb(255,0,0);"/>
            <path d="M1181.77,116.577C1180.98,116.996 1180.23,117.481 1179.52,118.03C1176.36,120.48 1174.8,123.641 1174.8,127.493C1174.8,131.283 1176.37,134.468 1179.62,137.003C1182.6,139.332 1186.13,140.52 1190.22,140.52C1194.05,140.52 1197.44,139.338 1200.38,136.984C1203.56,134.446 1205.1,131.302 1205.1,127.602C1205.1,123.782 1203.55,120.584 1200.39,118.037C1200.39,118.034 1200.39,118.031 1200.38,118.027C1197.56,115.782 1194.18,114.63 1190.22,114.63C1189.33,114.63 1188.46,114.681 1187.63,114.784C1188.31,114.621 1189.05,114.461 1189.84,114.301C1193.45,113.699 1195.76,113.344 1196.78,113.238C1197.77,113.137 1198.62,112.53 1199.05,111.638C1199.47,110.746 1199.4,109.697 1198.86,108.872C1198.41,108.19 1198.2,107.379 1198.18,106.455C1198.27,106.276 1198.61,105.602 1198.96,105.084C1200.19,103.307 1202.36,100.876 1205.43,97.772C1210.94,92.202 1214.25,88.681 1215.37,87.227C1215.37,87.222 1215.38,87.217 1215.38,87.212C1219.22,82.142 1221.08,77.048 1221.08,71.978C1221.08,65.299 1219.24,59.983 1215.72,55.975C1210.64,50.197 1201.83,47.063 1189.13,47.063C1183.06,47.063 1177.44,47.935 1172.26,49.662C1171.16,50.028 1170.4,51.024 1170.33,52.179L1168.64,80.645C1168.58,81.659 1169.07,82.627 1169.91,83.182C1170.77,83.737 1171.85,83.794 1172.75,83.33C1175.22,82.065 1177.62,81.406 1179.97,81.406C1181.21,81.406 1182.27,81.814 1183.15,82.647C1184,83.451 1184.39,84.482 1184.39,85.721C1184.39,87.64 1183.29,90.381 1181.32,94.031C1178.79,98.736 1177.58,103.012 1177.58,106.825C1177.58,109.669 1178.15,112.364 1179.3,114.912C1179.62,115.622 1180.22,116.17 1180.95,116.425C1181.22,116.516 1181.49,116.567 1181.77,116.577ZM1202.27,127.602C1202.27,130.438 1201.06,132.828 1198.62,134.773C1196.18,136.718 1193.38,137.691 1190.22,137.691C1186.8,137.691 1183.85,136.718 1181.36,134.773C1178.87,132.828 1177.62,130.401 1177.62,127.493C1177.62,124.548 1178.83,122.14 1181.25,120.267C1183.67,118.395 1186.66,117.459 1190.22,117.459C1193.49,117.459 1196.29,118.386 1198.62,120.24C1201.06,122.203 1202.27,124.657 1202.27,127.602ZM1218.25,71.978C1218.25,76.486 1216.54,80.994 1213.12,85.502C1212.03,86.92 1208.8,90.347 1203.42,95.782C1198.04,101.217 1195.35,104.716 1195.35,106.279C1195.35,107.879 1195.73,109.261 1196.49,110.424C1195.44,110.533 1193.06,110.897 1189.35,111.515C1185.89,112.205 1183.4,112.951 1181.88,113.751C1180.9,111.569 1180.4,109.261 1180.4,106.825C1180.4,103.407 1181.54,99.59 1183.81,95.373C1186.09,91.156 1187.22,87.938 1187.22,85.721C1187.22,83.648 1186.51,81.94 1185.1,80.594C1183.68,79.249 1181.97,78.577 1179.97,78.577C1177.21,78.577 1174.37,79.322 1171.46,80.813L1173.15,52.346C1178.06,50.71 1183.39,49.892 1189.13,49.892C1208.54,49.892 1218.25,57.254 1218.25,71.978Z" style="fill:rgb(255,0,0);"/>
        </g>
        <g transform="matrix(0.706911,0,0,0.706911,-4.80832,29.9454)">
            <text x="242px" y="136px" style="font-family:'ShowcardGothic-Reg', 'Showcard Gothic', fantasy;font-size:111.684px;fill:url(#_Linear2);">CE SPUN ROMÂNII?</text>
            <path d="M305.858,86.539C303.859,85.92 301.296,85.611 298.169,85.611C292.352,85.611 287.626,87.138 283.99,90.192C279.882,93.61 277.828,98.536 277.828,104.971C277.828,109.988 279.455,114.105 282.709,117.322C285.963,120.54 290.225,122.149 295.497,122.149C299.096,122.149 302.514,121.258 305.749,119.476C305.386,120.967 304.768,123.712 303.895,127.711C303.386,130.365 302.895,133.128 302.423,136C298.351,137.563 293.134,138.345 286.772,138.345C275.247,138.345 265.395,134.473 257.215,126.729C248.344,118.295 243.909,107.316 243.909,93.791C243.909,81.285 247.726,71.178 255.361,63.471C263.504,55.255 274.756,51.147 289.117,51.147C296.024,51.147 301.023,51.546 304.113,52.346L305.858,86.539ZM302.848,83.131C301.444,82.991 299.885,82.933 298.169,82.976C295.153,83.051 292.414,83.482 289.95,84.291C287.129,85.219 284.653,86.597 282.539,88.464C280.149,90.556 278.384,93.093 277.297,96.106C276.358,98.708 275.893,101.657 275.971,104.971C276.031,107.647 276.5,110.08 277.395,112.27C278.343,114.59 279.74,116.647 281.62,118.424C283.507,120.208 285.67,121.523 288.131,122.345C290.349,123.085 292.801,123.442 295.497,123.381C297.411,123.338 299.27,123.063 301.076,122.546C302.187,122.229 303.278,121.825 304.349,121.33C304.349,121.33 303.079,127.533 303.079,127.533C303.077,127.54 303.076,127.547 303.074,127.554L301.819,135.516C299.729,136.322 297.335,136.927 294.636,137.332C292.25,137.689 289.629,137.891 286.772,137.937C281.084,138.014 275.791,137.145 270.902,135.303C265.93,133.429 261.379,130.553 257.237,126.706C252.682,122.372 249.253,117.384 247.088,111.688C245.047,106.319 244.147,100.339 244.257,93.791C244.436,87.861 245.442,82.502 247.348,77.725C249.376,72.644 252.427,68.266 256.431,64.531C260.72,60.549 265.808,57.768 271.662,56.024C276.861,54.476 282.668,53.788 289.117,53.984C292.531,53.993 295.466,54.102 297.923,54.306C299.212,54.412 300.363,54.543 301.373,54.704L302.848,83.131Z" style="fill:white;"/>
            <path d="M347.509,136L314.311,136L312.729,93.246C312.439,83.466 311.73,69.797 310.603,52.237L367.917,52.237L365.572,86.757C364.227,86.539 361.318,86.157 356.847,85.611C353.793,85.321 350.448,85.139 346.813,85.066L345.995,95.482C349.994,95.591 356.519,95.5 365.572,95.209C365.172,96.554 364.536,99.063 363.663,102.735C363.154,104.953 362.7,107.516 362.3,110.424C361.246,110.17 358.61,109.842 354.393,109.442C352.429,109.333 349.521,109.297 345.667,109.333L345.122,121.494C347.849,121.458 352.866,121.222 360.173,120.785C361.555,120.676 363.827,120.24 366.99,119.476C366.699,120.603 366.026,123.312 364.972,127.602C364.463,129.82 363.845,132.619 363.118,136L348.151,136L347.857,136C355.954,136.003 362.479,135.951 363.074,135.946L364.855,127.575L366.715,119.754C365.273,120.114 364.024,120.401 362.966,120.615C361.817,120.847 360.893,120.994 360.195,121.056L345.128,121.957C345.001,121.959 344.878,121.908 344.789,121.817C344.701,121.725 344.654,121.601 344.659,121.473L345.038,109.305C345.053,108.971 345.327,108.707 345.661,108.703L354.435,108.674C354.445,108.675 354.455,108.675 354.465,108.676C356.815,108.86 358.676,109.031 360.051,109.186C360.624,109.251 361.115,109.314 361.524,109.374C361.658,108.337 361.799,107.345 361.948,106.399C362.169,105.002 362.407,103.704 362.662,102.505L364.08,96.455C360.166,96.649 356.755,96.793 353.846,96.888C350.587,96.995 347.956,97.038 345.953,97.022C345.531,97.01 345.132,96.826 344.849,96.512C344.567,96.198 344.426,95.782 344.459,95.361L345.08,84.93C345.152,84.012 345.927,83.31 346.847,83.328C348.609,83.33 350.303,83.36 351.931,83.415C353.711,83.475 355.409,83.568 357.029,83.691L363.573,84.418L364.952,55.067L313.566,55.082C313.827,61.464 314.058,67.302 314.191,72.606C314.396,80.744 314.417,87.601 314.391,93.185C314.391,93.185 314.392,106.944 314.483,118.869C314.543,126.853 314.65,134.004 314.675,135.637C316.788,135.681 327.749,135.9 338.714,135.971C341.706,135.99 344.697,135.999 347.509,136Z" style="fill:white;"/>
            <path d="M446.881,86.539C444.19,85.92 442.155,85.611 440.773,85.611C439.064,85.611 437.501,86.193 436.083,87.357C434.374,88.774 433.52,90.61 433.52,92.864C433.52,94.609 435.083,97.972 438.21,102.953C441.337,107.934 442.9,112.514 442.9,116.695C442.9,122.767 440.591,127.747 435.974,131.637C431.575,135.382 426.14,137.254 419.669,137.254C413.706,137.254 409.307,136.836 406.472,136C406.145,134.328 405.581,131.601 404.781,127.82C404.272,125.784 403.563,123.076 402.654,119.695C406.653,120.676 409.344,121.167 410.725,121.167C416.142,121.167 418.851,119.113 418.851,115.005C418.851,112.024 417.76,109.352 415.579,106.988C412.016,103.862 408.453,100.717 404.89,97.554C397.983,91.446 394.529,84.194 394.529,75.796C394.529,67.034 397.801,60.399 404.345,55.891C410.053,51.965 417.651,50.001 427.14,50.001C432.52,50.001 438.555,50.783 445.245,52.346L446.881,86.539ZM443.883,83.16C443.8,83.149 443.718,83.139 443.637,83.129C442.502,82.992 441.548,82.929 440.773,82.95C439.577,82.982 438.434,83.197 437.353,83.641C436.349,84.054 435.383,84.625 434.482,85.406C434.479,85.409 434.475,85.412 434.472,85.414C433.339,86.408 432.486,87.522 431.942,88.785C431.412,90.017 431.126,91.371 431.167,92.864C431.193,93.843 431.527,95.233 432.342,96.985C433.195,98.816 434.562,101.173 436.473,104.043C437.874,106.154 438.978,108.186 439.761,110.157C440.666,112.436 441.165,114.612 441.216,116.695C441.284,119.485 440.838,122.038 439.835,124.353C438.819,126.699 437.264,128.805 435.159,130.669C435.157,130.671 435.155,130.672 435.154,130.673C433.044,132.559 430.67,133.989 428.013,134.938C425.476,135.845 422.695,136.326 419.669,136.39C416.627,136.454 413.995,136.404 411.77,136.229C409.868,136.08 408.268,135.843 406.972,135.518L405.213,127.712L403.08,120.1C404.776,120.488 406.223,120.786 407.424,120.994C408.891,121.249 409.991,121.371 410.725,121.362C413.168,121.331 415.06,120.891 416.407,120.051C418.094,119.001 418.935,117.324 418.912,115.005C418.9,113.477 418.602,112.033 418.023,110.67C417.47,109.366 416.66,108.135 415.587,106.981L404.935,97.503C401.65,94.485 399.164,91.225 397.534,87.689C395.834,84.002 395.079,80.032 395.205,75.796C395.364,71.689 396.239,68.099 397.859,65.022C399.528,61.851 402.018,59.28 405.277,57.244C408.278,55.376 411.781,54.125 415.774,53.374C419.203,52.729 422.984,52.494 427.14,52.655C429.879,52.714 432.783,53.029 435.871,53.486C437.994,53.8 440.203,54.18 442.495,54.663C442.495,54.663 443.884,83.16 443.884,83.16L443.883,83.16Z" style="fill:white;"/>
            <path d="M521.809,85.284C521.809,95.609 518.51,103.871 511.911,110.07C505.313,116.268 496.56,119.367 485.654,119.367L484.999,136L454.952,136L453.37,95.373C452.898,84.903 452.152,70.524 451.134,52.237C456.806,51.11 465.113,50.547 476.056,50.547C489.398,50.547 500.087,53.219 508.121,58.563C517.247,64.634 521.809,73.541 521.809,85.284ZM518.98,85.284C519.105,89.911 518.541,94.111 517.218,97.886C515.801,101.929 513.569,105.487 510.482,108.548C507.29,111.7 503.527,114.07 499.172,115.635C495.149,117.081 490.645,117.865 485.654,117.987C484.912,117.987 484.303,118.572 484.274,119.313L484.029,135.033C484.029,135.033 455.329,135.593 455.329,135.593C455.202,133.342 454.557,121.778 454.074,111.621C453.663,102.988 453.379,95.373 453.379,95.373C453.379,95.373 453.379,95.373 453.379,95.372C453.197,89.433 452.865,82.242 452.627,73.785C452.452,67.581 452.369,60.708 452.211,53.149C454.728,52.808 457.708,52.592 461.165,52.497C465.426,52.381 470.379,52.466 476.056,52.726C481.963,52.94 487.281,53.764 492.093,54.945C497.622,56.302 502.46,58.206 506.538,60.943C510.756,63.745 513.911,67.205 515.979,71.345C517.987,75.366 518.974,80.015 518.98,85.284ZM502.007,94.446C501.493,90.533 500.09,87.81 497.378,86.298C495.318,85.15 492.62,84.579 489.089,84.997L486.547,85.424C486.213,85.467 485.961,85.747 485.951,86.083C485.951,86.083 486.203,89.214 486.298,92.969C486.335,94.457 486.353,96.039 486.299,97.554C486.27,98.344 486.209,99.114 486.133,99.841C486.047,100.674 485.937,101.437 485.825,102.125C485.522,103.978 485.243,105.165 485.243,105.165C485.236,105.398 485.326,105.625 485.492,105.79C485.658,105.955 485.884,106.044 486.118,106.036C489.5,106.648 492.217,106.572 494.61,105.988C495.434,105.788 496.164,105.476 496.844,105.086C500.374,103.058 501.996,99.279 502.007,94.446ZM499.178,94.446C499.178,88.774 495.815,85.939 489.089,85.939C488.289,85.939 487.471,85.993 486.635,86.102L486.09,105.189C494.815,104.898 499.178,101.317 499.178,94.446Z" style="fill:white;"/>
            <path d="M599.246,52.237L597.992,87.52C597.628,97.591 597.446,112.823 597.446,133.219C588.14,136.564 578.651,138.236 568.98,138.236C557.056,138.236 547.985,135.855 541.768,131.092C536.497,127.057 532.77,120.767 530.589,112.224C529.317,107.316 528.117,98.336 526.99,85.284C525.899,73.214 525.227,62.199 524.972,52.237L560.146,52.237C559.964,57.036 559.746,64.853 559.491,75.686C559.382,81.721 559.419,90.283 559.601,101.372C559.637,109.806 560.364,115.496 561.782,118.44C563.272,121.567 566.254,123.13 570.725,123.13C571.998,123.13 573.416,122.767 574.979,122.04C574.979,114.55 574.761,102.644 574.324,86.32C573.961,78.14 573.288,66.779 572.307,52.237L599.246,52.237ZM596.365,55.069L595.769,87.441C595.675,92.337 595.646,98.446 595.674,105.773C595.701,113.295 595.785,122.098 595.939,132.186C591.739,133.712 587.497,134.892 583.21,135.721C578.518,136.628 573.776,137.119 568.98,137.193C562.565,137.279 556.98,136.661 552.224,135.325C548.305,134.224 544.952,132.643 542.169,130.569C542.169,130.569 542.169,130.569 542.169,130.569C539.37,128.477 537.003,125.741 535.065,122.361C533.382,119.428 532.022,116.015 530.982,112.123C530.982,112.123 530.982,112.122 530.982,112.122C530.308,109.632 529.637,106.084 528.984,101.477C528.357,97.049 527.75,91.647 527.147,85.271C527.147,85.27 527.147,85.27 527.147,85.27C526.59,79.533 526.119,74.035 525.765,68.774C525.374,62.973 525.122,57.461 524.973,52.239C525.118,52.239 536.346,52.247 546.076,52.334C552.622,52.392 558.488,52.491 559.849,52.515L558.771,75.673C558.648,78.536 558.55,81.964 558.46,85.964C558.361,90.407 558.273,95.547 558.211,101.394C558.107,105.56 558.197,109.08 558.466,111.946C558.767,115.168 559.334,117.598 560.076,119.262C561.022,121.405 562.566,122.962 564.641,123.998C566.289,124.821 568.316,125.265 570.725,125.334C571.439,125.353 572.189,125.274 572.978,125.116C573.914,124.928 574.905,124.599 575.957,124.143C576.775,123.762 577.299,122.942 577.299,122.04C577.412,116.928 577.55,109.766 577.47,100.545C577.432,96.228 577.298,91.462 577.182,86.244C577.181,86.227 577.181,86.21 577.18,86.193C577.009,82.338 576.77,77.779 576.461,72.515C576.159,67.377 575.789,61.567 575.355,55.085L596.365,55.069Z" style="fill:white;"/>
            <path d="M670.739,52.237C670.23,59.581 669.521,72.396 668.612,90.683C668.067,104.135 667.612,119.604 667.249,137.091C662.486,133.346 655.233,127.766 645.49,120.349C641.273,117.404 634.983,112.987 626.622,107.097L626.076,136L608.517,136C608.226,128.62 607.553,114.696 606.499,94.228C605.59,77.65 604.663,63.653 603.718,52.237L631.093,52.237L651.38,71.433C651.38,67.034 651.307,63.58 651.162,61.072C651.052,58.854 650.834,55.909 650.507,52.237L670.739,52.237ZM667.778,55.069C667.633,58.405 667.475,62.539 667.305,67.473C667.085,73.844 666.844,81.543 666.582,90.582C666.581,90.588 666.581,90.594 666.581,90.601C666.426,97.776 666.308,105.519 666.225,113.838C666.16,120.461 666.116,127.443 666.096,134.79C666.096,134.791 645.914,119.792 645.914,119.792C645.907,119.786 645.899,119.78 645.891,119.775L626.84,106.787C626.725,106.707 626.575,106.696 626.45,106.759C626.325,106.823 626.245,106.95 626.242,107.09L625.998,135.921C625.998,135.921 608.521,135.995 608.521,135.995C608.369,131.479 608.025,124.519 607.675,115.106C607.453,109.126 607.27,102.159 607.009,94.201C607.009,94.201 607.009,94.2 607.009,94.2C606.733,83.251 606.392,73.436 606.058,64.728C605.914,60.984 605.779,57.451 605.63,54.122C605.63,54.122 629.948,54.885 629.948,54.885C630.94,55.873 632.899,57.812 635.228,60.059C641.148,65.771 649.415,73.509 649.415,73.509C650.244,74.294 651.461,74.51 652.51,74.058C653.558,73.607 654.238,72.575 654.238,71.433L654.013,60.916C654.013,60.916 653.576,55.082 653.576,55.082L667.778,55.069Z" style="fill:white;"/>
            <path d="M732.729,117.407L732.198,136L701.496,136C701.096,128.075 700.532,115.005 699.805,96.791C699.478,86.066 698.733,71.215 697.569,52.237C707.567,51.183 716.692,50.656 724.945,50.656C755.52,50.656 770.807,61.635 770.807,83.594C770.807,90.283 768.935,96.209 765.19,101.372C761.882,105.88 757.737,109.115 752.757,111.078C753.811,112.714 756.41,116.15 760.555,121.385C762.627,123.785 765.79,126.948 770.044,130.874C768.335,131.492 764.572,133.055 758.755,135.564C754.683,137.418 750.848,139.236 747.249,141.017C746.195,139.708 743.85,136.327 740.214,130.874C738.568,128.155 736.166,123.606 733.007,117.225L733.021,117.212L733.363,116.661C735.04,119.923 736.51,122.71 737.778,125.022C739.016,127.276 740.059,129.074 740.904,130.419C742.59,132.857 744.004,134.873 745.147,136.47C746.159,137.886 746.956,138.967 747.536,139.714L758.221,134.391L767.252,130.43C765.675,129.005 764.268,127.694 763.028,126.495C761.496,125.014 760.22,123.702 759.194,122.561C759.177,122.541 759.161,122.522 759.145,122.501C757.166,120.102 755.531,118.084 754.234,116.448C752.693,114.506 751.625,113.088 751.023,112.196C750.688,111.676 750.604,111.034 750.793,110.446C750.983,109.858 751.426,109.386 752,109.16C754.303,108.193 756.394,106.922 758.289,105.364C760.14,103.842 761.783,102.03 763.237,99.955C764.917,97.528 766.141,94.927 766.936,92.162C767.711,89.467 768.044,86.61 767.978,83.594C767.969,74.602 765.217,67.613 759.552,62.691C754.207,58.047 746.386,55.319 736.178,54.09C732.704,53.672 728.964,53.386 724.945,53.321C720.66,53.188 716.141,53.202 711.372,53.328C707.515,53.429 703.506,53.596 699.334,53.859C699.334,53.859 700.142,96.78 700.142,96.777C700.327,104.162 700.458,110.701 700.653,116.395C700.939,124.74 701.284,131.265 701.516,135.978C701.516,135.978 731.904,135.704 731.904,135.704L732.175,116.897C732.17,117.051 732.228,117.2 732.335,117.31C732.371,117.346 732.411,117.377 732.454,117.402L732.341,117.166L732.729,117.407ZM732.729,117.399C732.684,117.138 732.573,116.347 732.841,116.343C733.318,116.337 733.153,116.863 732.996,117.202L732.852,116.913L732.743,116.913L732.729,117.399ZM748.878,95.373C748.576,93.181 748.024,91.358 746.905,89.898C745.786,88.438 744.392,87.231 742.421,86.522C742.42,86.522 742.418,86.521 742.417,86.52C741.301,86.118 740.123,85.827 738.808,85.709C737.215,85.567 735.497,85.596 733.587,85.897C733.248,85.912 732.979,86.188 732.973,86.527C732.973,86.527 733.268,89.582 733.386,93.251C733.433,94.703 733.472,96.25 733.4,97.728C733.334,99.071 733.184,100.343 733.023,101.453C732.7,103.686 732.321,105.172 732.321,105.172C732.316,105.431 732.416,105.682 732.598,105.867C732.78,106.052 733.029,106.157 733.288,106.157C735.264,106.606 737.041,106.676 738.879,106.518C740.235,106.402 741.451,106.004 742.725,105.57C744.738,104.499 746.26,103.104 747.289,101.445C748.36,99.718 748.892,97.686 748.878,95.373ZM746.049,95.373C746.049,91.919 744.595,89.447 741.686,87.956C739.541,86.866 736.851,86.393 733.616,86.539L733.288,105.189C736.306,105.189 738.996,104.516 741.359,103.171C744.486,101.426 746.049,98.827 746.049,95.373Z" style="fill:white;"/>
            <path d="M847.099,92.319C847.099,105.152 843.791,116.005 837.174,124.875C830.23,134.146 821.341,138.781 810.507,138.781C799.346,138.781 790.312,134.11 783.404,124.766C776.897,115.968 773.643,105.152 773.643,92.319C773.643,78.613 777.187,67.852 784.277,60.035C790.966,52.692 799.71,49.02 810.507,49.02C821.123,49.02 829.776,52.71 836.465,60.09C843.554,67.943 847.099,78.686 847.099,92.319ZM844.27,92.319C844.439,98.224 843.891,103.709 842.571,108.781C841.144,114.266 838.861,119.262 835.69,123.769C832.556,128.188 828.966,131.573 824.881,133.893C820.604,136.321 815.816,137.604 810.507,137.74C805.006,137.864 800.007,136.825 795.518,134.587C791.087,132.379 787.158,129.022 783.71,124.54C783.71,124.54 783.71,124.54 783.71,124.54C780.267,120.026 777.678,114.961 776,109.324C774.454,104.128 773.689,98.454 773.645,92.319C773.715,85.968 774.494,80.244 776.121,75.191C777.982,69.413 780.921,64.538 784.797,60.508C788.274,57.005 792.221,54.457 796.667,52.877C800.852,51.39 805.462,50.819 810.507,51.064C815.388,51.272 819.761,52.336 823.697,54.145C825.314,54.888 826.838,55.783 828.311,56.78C830.47,58.242 832.499,59.96 834.346,62.01C837.86,65.899 840.426,70.564 842.066,75.989C843.532,80.836 844.262,86.279 844.27,92.319ZM823.698,101.917C823.179,95.863 821.739,91.57 819.313,88.94C817.131,86.575 814.3,85.364 810.616,85.656C807.19,85.885 804.669,87.248 802.99,89.817C801.235,92.503 800.384,96.538 800.618,102.026C800.593,104.048 800.846,105.993 801.189,107.899C801.544,109.872 802.003,111.793 802.755,113.67C802.755,113.67 802.755,113.671 802.755,113.671C803.615,116.132 804.764,117.883 806.052,119.145C807.34,120.409 808.831,121.004 810.507,121.253C812.286,121.504 813.979,121.002 815.714,119.991C816.862,119.322 817.962,118.326 819.003,116.994C819.529,116.32 819.978,115.517 820.448,114.657C821.519,112.646 822.329,110.602 822.869,108.523C823.431,106.357 823.707,104.155 823.698,101.917ZM820.868,101.917C820.868,91.81 817.451,86.757 810.616,86.757C803.963,86.757 800.637,91.846 800.637,102.026C800.637,106.098 801.509,109.897 803.254,113.423C805.217,117.386 807.635,119.367 810.507,119.367C813.307,119.367 815.779,117.35 817.924,113.314C819.887,109.642 820.868,105.843 820.868,101.917Z" style="fill:white;"/>
            <path d="M939.369,52.237C938.86,59.872 938.115,73.796 937.133,94.01C936.624,106.443 936.242,120.44 935.988,136L916.247,136L915.701,110.315L896.451,138.018L875.674,110.533L875.129,136L855.497,136C855.242,127.675 854.752,113.605 854.025,93.791C853.516,82.376 852.589,68.524 851.243,52.237L882.491,52.237C883.581,54.891 885.454,59.181 888.108,65.107C890.144,69.324 892.925,74.305 896.451,80.049C898.015,77.577 900.887,72.469 905.067,64.725C906.558,61.853 908.467,57.691 910.793,52.237L939.369,52.237ZM936.403,55.069C936.24,58.673 936.056,63.251 935.852,68.806C935.6,75.679 935.316,84.043 935.001,93.906C935.001,93.911 935.001,93.917 935,93.922C934.835,100.498 934.713,107.507 934.63,114.953C934.56,121.177 934.516,127.703 934.502,134.535C934.502,134.535 917.396,134.792 917.396,134.792C917.395,134.792 916.54,110.297 916.54,110.297C916.532,109.934 916.291,109.617 915.944,109.512C915.596,109.407 915.22,109.538 915.013,109.836L896.428,137.267C896.428,137.267 875.78,110.453 875.78,110.453C875.746,110.408 875.687,110.39 875.633,110.407C875.58,110.424 875.543,110.474 875.542,110.53L875.118,135.989C875.118,135.989 855.539,135.957 855.539,135.957C855.539,135.957 854.663,93.768 854.663,93.768C854.663,93.766 854.663,93.765 854.662,93.763C854.554,88.686 854.361,83.133 854.122,77.091C853.842,70.044 853.495,62.347 853.043,53.987C853.043,53.987 880.772,54.734 880.772,54.734C880.772,54.734 885.545,66.255 885.545,66.255C885.556,66.279 885.567,66.304 885.579,66.328C886.492,68.25 887.549,70.33 888.768,72.56C890.276,75.32 892.033,78.311 894.014,81.545C894.531,82.387 895.445,82.902 896.432,82.909C897.42,82.915 898.34,82.412 898.868,81.577C899.706,80.251 900.914,78.184 902.489,75.373C903.89,72.874 905.588,69.777 907.582,66.083C907.589,66.069 907.596,66.055 907.604,66.041C908.326,64.649 909.146,62.961 910.059,60.975C910.857,59.242 911.729,57.279 912.674,55.086L936.403,55.069Z" style="fill:white;"/>
            <path d="M1010.53,136L980.705,136L978.687,128.747C977.851,129.074 975.761,130.183 972.416,132.074C970.271,133.455 967.89,135.291 965.272,137.581L962.164,130.983C961.546,129.674 960.655,127.838 959.491,125.475L956.547,136L940.732,136C943.059,127.02 946.658,112.205 951.53,91.556C954.511,77.741 957.001,64.634 959.001,52.237L991.775,52.237C992.793,57.945 995.574,71.233 1000.12,92.101C1002.63,103.007 1006.1,117.641 1010.53,136ZM1006.96,133.26L982.236,133.879C982.236,133.879 980.521,128.237 980.521,128.237C980.377,127.718 980.019,127.285 979.538,127.044C979.056,126.804 978.495,126.778 977.993,126.974C977.58,127.147 976.883,127.495 975.909,128.034C974.831,128.632 973.381,129.471 971.558,130.557C971.529,130.573 971.501,130.591 971.472,130.609C970.296,131.405 969.05,132.335 967.738,133.407C967.091,133.935 966.428,134.496 965.747,135.091L963.404,130.397L960.598,124.93C960.372,124.472 959.887,124.2 959.378,124.247C958.869,124.294 958.442,124.651 958.304,125.143L955.771,135.02C955.771,135.02 941.596,135.297 941.596,135.297L951.583,91.567C953.333,83.476 954.849,75.616 956.329,68.024C957.356,62.757 958.388,57.626 959.296,52.6C960.6,52.632 966.041,52.771 972.11,52.978C979.299,53.224 987.354,53.556 990.458,53.687C991.081,58.088 992.279,65.759 994.226,76.701C994.835,80.127 995.503,83.871 996.313,87.925C996.623,89.476 996.981,91.067 997.331,92.708C997.333,92.719 997.335,92.73 997.338,92.74C998.501,97.803 999.867,103.667 1001.45,110.332C1003.06,117.139 1004.9,124.781 1006.96,133.26L1006.96,133.26ZM976.92,120.828C977.652,120.613 978.266,120.112 978.624,119.439C978.981,118.765 979.051,117.975 978.818,117.249L974.366,108.186C974.361,108.172 974.356,108.158 974.35,108.143L968.992,98.604C968.91,98.425 968.729,98.311 968.531,98.316C968.334,98.321 968.159,98.444 968.086,98.627C967.607,100.11 967.037,102.251 966.112,104.996C965.686,106.261 965.135,107.634 964.576,109.154C964.576,109.155 964.576,109.155 964.576,109.155C964.136,110.121 963.704,111.219 963.158,112.425C962.842,113.121 962.504,113.825 962.12,114.584C961.283,116.24 960.348,117.936 959.319,119.947C959.159,120.514 959.274,121.122 959.629,121.592C959.984,122.061 960.539,122.337 961.127,122.337C961.866,122.483 963.135,122.664 965.094,122.801C965.568,122.834 966.068,122.869 966.619,122.853C967.31,122.834 968.056,122.723 968.866,122.645C968.891,122.642 968.917,122.639 968.942,122.635C970.235,122.451 971.586,122.201 972.994,121.876C974.256,121.585 975.565,121.234 976.92,120.828ZM976.124,118.113C975.506,116.186 974.415,113.06 972.852,108.733C971.907,106.334 970.471,103.026 968.544,98.808C967.708,100.917 966.399,104.371 964.618,109.17C963.636,111.933 962.473,115.696 961.127,120.458C962.218,120.458 964.69,120.24 968.544,119.804C970.871,119.476 973.397,118.913 976.124,118.113ZM997.556,36.532L993.52,47.111L984.74,43.076C982.777,42.203 979.941,40.767 976.233,38.768C974.67,39.676 972.034,41.112 968.326,43.076C965.745,44.275 962.654,45.621 959.055,47.111L955.02,36.532C957.237,35.659 960.964,34.023 966.199,31.624C968.817,30.242 972.161,28.152 976.233,25.352C978.269,26.734 981.65,28.824 986.376,31.624C989.212,33.114 992.938,34.75 997.556,36.532ZM994.09,38.217L992.202,44.403C992.202,44.403 985.346,41.757 985.346,41.757C985.341,41.755 985.335,41.752 985.33,41.75C984.177,41.321 982.729,40.735 980.978,39.964C979.693,39.398 978.258,38.738 976.654,37.986C976.383,37.84 976.054,37.845 975.787,38L968.117,42.682C967.03,43.244 965.831,43.853 964.527,44.484C962.875,45.282 961.064,46.113 959.098,47.002C958.909,46.545 957.942,44.196 957.04,41.82C956.148,39.469 955.321,37.095 955.147,36.593C955.147,36.593 966.619,32.54 966.619,32.54C966.636,32.532 966.653,32.524 966.669,32.515C968.263,31.888 970.077,31.061 972.192,30.03C973.374,29.454 974.62,28.821 975.956,28.122C976.969,28.938 978.22,29.915 979.785,30.97C981.234,31.946 982.983,32.926 984.92,34.083C984.961,34.108 985.004,34.131 985.046,34.154C986.381,34.853 987.904,35.585 989.62,36.345C990.987,36.95 992.477,37.573 994.09,38.217Z" style="fill:white;"/>
            <path d="M1079.57,52.237C1079.06,59.581 1078.36,72.396 1077.45,90.683C1076.9,104.135 1076.45,119.604 1076.08,137.091C1071.32,133.346 1064.07,127.766 1054.32,120.349C1050.11,117.404 1043.82,112.987 1035.46,107.097L1034.91,136L1017.35,136C1017.06,128.62 1016.39,114.696 1015.33,94.228C1014.42,77.65 1013.5,63.653 1012.55,52.237L1039.93,52.237L1060.21,71.433C1060.21,67.034 1060.14,63.58 1060,61.072C1059.89,58.854 1059.67,55.909 1059.34,52.237L1079.57,52.237ZM1076.61,55.069C1076.47,58.405 1076.31,62.539 1076.14,67.473C1075.92,73.844 1075.68,81.543 1075.42,90.582C1075.42,90.588 1075.41,90.594 1075.41,90.601C1075.26,97.776 1075.14,105.519 1075.06,113.838C1074.99,120.461 1074.95,127.443 1074.93,134.79C1074.93,134.791 1054.75,119.792 1054.75,119.792C1054.74,119.786 1054.73,119.78 1054.73,119.775L1035.67,106.787C1035.56,106.707 1035.41,106.696 1035.29,106.759C1035.16,106.823 1035.08,106.95 1035.08,107.09L1034.83,135.921C1034.83,135.921 1017.36,135.995 1017.36,135.995C1017.2,131.479 1016.86,124.519 1016.51,115.106C1016.29,109.126 1016.11,102.159 1015.84,94.201C1015.84,94.201 1015.84,94.2 1015.84,94.2C1015.57,83.251 1015.23,73.436 1014.89,64.728C1014.75,60.984 1014.61,57.451 1014.47,54.122C1014.46,54.122 1038.78,54.885 1038.78,54.885C1039.77,55.873 1041.73,57.812 1044.06,60.059C1049.98,65.771 1058.25,73.509 1058.25,73.509C1059.08,74.294 1060.3,74.51 1061.34,74.058C1062.39,73.607 1063.07,72.575 1063.07,71.433L1062.85,60.916C1062.85,60.916 1062.41,55.082 1062.41,55.082L1076.61,55.069Z" style="fill:white;"/>
            <path d="M1087.42,128.426L1084.05,52.237L1121.89,52.237L1119.76,96.791C1119.36,106.389 1118.89,119.458 1118.35,136L1087.75,136L1087.63,133.127C1087.71,134.818 1087.76,135.828 1087.77,135.979C1087.77,135.979 1117.87,135.527 1117.87,135.527L1118.29,96.729C1118.29,96.726 1118.29,96.723 1118.29,96.72L1119.01,55.068L1086.95,55.082C1086.98,56.816 1087.02,59.242 1087.03,62.176C1087.08,72.171 1086.76,87.99 1086.84,102.47C1086.87,108.476 1086.96,114.237 1087.1,119.243C1087.2,122.732 1087.31,125.851 1087.42,128.426ZM1087.54,131.03L1087.62,133.077L1087.42,128.59L1087.54,131.03Z" style="fill:white;"/>
            <path d="M1129.74,128.426L1126.36,52.237L1164.21,52.237L1162.08,96.791C1161.68,106.389 1161.21,119.458 1160.66,136L1130.07,136L1129.94,133.127C1130.03,134.818 1130.08,135.828 1130.09,135.979C1130.09,135.979 1160.19,135.527 1160.19,135.527L1160.61,96.729C1160.61,96.726 1160.61,96.723 1160.61,96.72L1161.33,55.068L1129.27,55.082C1129.3,56.816 1129.34,59.242 1129.35,62.176C1129.39,72.171 1129.07,87.99 1129.15,102.47C1129.19,108.476 1129.28,114.237 1129.42,119.243C1129.52,122.732 1129.63,125.851 1129.74,128.426ZM1129.86,131.03L1129.94,133.077L1129.74,128.59L1129.86,131.03Z" style="fill:white;"/>
            <path d="M1202.27,127.602C1202.27,130.438 1201.06,132.828 1198.62,134.773C1196.18,136.718 1193.38,137.691 1190.22,137.691C1186.8,137.691 1183.85,136.718 1181.36,134.773C1178.87,132.828 1177.62,130.401 1177.62,127.493C1177.62,124.548 1178.83,122.14 1181.25,120.267C1183.67,118.395 1186.66,117.459 1190.22,117.459C1193.49,117.459 1196.29,118.386 1198.62,120.24C1201.06,122.203 1202.27,124.657 1202.27,127.602ZM1199.44,127.602C1199.55,128.63 1199.56,129.597 1199.19,130.507C1198.81,131.47 1198.26,132.4 1197.4,133.245C1196.41,134.201 1195.37,134.985 1194.18,135.527C1192.95,136.086 1191.65,136.463 1190.22,136.6C1188.64,136.731 1187.16,136.665 1185.75,136.329C1184.26,135.973 1182.87,135.359 1181.58,134.489C1180.34,133.625 1179.38,132.647 1178.72,131.519C1178.02,130.32 1177.68,128.97 1177.63,127.493C1177.66,126.013 1177.96,124.654 1178.64,123.483C1179.3,122.356 1180.3,121.446 1181.55,120.651C1182.87,119.899 1184.27,119.434 1185.83,119.231C1187.23,119.047 1188.65,119.202 1190.22,119.48C1191.57,119.686 1192.72,120.179 1193.84,120.698C1194.16,120.849 1194.46,121.033 1194.77,121.193C1195.49,121.557 1196.19,121.954 1196.83,122.468C1197.68,123.157 1198.35,123.918 1198.79,124.776C1199.22,125.63 1199.44,126.572 1199.44,127.602ZM1218.25,71.978C1218.25,76.486 1216.54,80.994 1213.12,85.502C1212.03,86.92 1208.8,90.347 1203.42,95.782C1198.04,101.217 1195.35,104.716 1195.35,106.279C1195.35,107.879 1195.73,109.261 1196.49,110.424C1195.44,110.533 1193.06,110.897 1189.35,111.515C1185.89,112.205 1183.4,112.951 1181.88,113.751C1180.9,111.569 1180.4,109.261 1180.4,106.825C1180.4,103.407 1181.54,99.59 1183.81,95.373C1186.09,91.156 1187.22,87.938 1187.22,85.721C1187.22,83.648 1186.51,81.94 1185.1,80.594C1183.68,79.249 1181.97,78.577 1179.97,78.577C1177.21,78.577 1174.37,79.322 1171.46,80.813L1173.15,52.346C1178.06,50.71 1183.39,49.892 1189.13,49.892C1208.54,49.892 1218.25,57.254 1218.25,71.978ZM1215.42,71.978C1215.5,74.037 1215.19,76.111 1214.44,78.2C1213.74,80.162 1212.7,82.14 1211.31,84.128C1210.77,84.891 1209.62,86.282 1207.85,88.284C1206.37,89.959 1204.47,92.04 1202.16,94.54C1199.37,97.565 1197.32,100.008 1196.01,101.885C1194.61,103.89 1194.01,105.38 1194.04,106.279C1194.07,107.166 1194.19,107.991 1194.42,108.754C1194.51,109.036 1194.6,109.311 1194.71,109.578L1189.17,110.601C1187.37,111.015 1185.84,111.434 1184.56,111.863C1183.65,112.169 1182.86,112.477 1182.21,112.79C1181.85,111.962 1181.57,111.113 1181.36,110.242C1181.1,109.136 1180.95,107.998 1180.92,106.825C1180.88,105.01 1181.15,103.072 1181.76,101.011C1182.28,99.256 1183.04,97.417 1184.03,95.488C1185.14,93.327 1185.97,91.427 1186.51,89.79C1187.05,88.182 1187.31,86.826 1187.29,85.721C1187.28,84.694 1187.1,83.759 1186.74,82.913C1186.38,82.041 1185.84,81.263 1185.11,80.582C1184.39,79.907 1183.6,79.405 1182.74,79.07C1181.88,78.739 1180.96,78.57 1179.97,78.568C1178.53,78.557 1177.06,78.756 1175.57,79.143C1174.27,79.482 1172.95,79.963 1171.61,80.604C1171.73,79.181 1172.47,70.971 1173.25,63.779C1173.73,59.366 1174.22,55.352 1174.46,53.504C1176.68,52.97 1178.96,52.621 1181.33,52.416C1183.85,52.199 1186.44,52.184 1189.13,52.346C1192.01,52.476 1194.63,52.829 1197.06,53.225C1201.36,53.926 1204.95,54.979 1207.79,56.702C1212.93,59.83 1215.41,64.949 1215.42,71.978Z" style="fill:white;"/>
        </g>
    </g>
    <defs>
        <linearGradient id="_Linear1" x1="0" y1="0" x2="1" y2="0" gradientUnits="userSpaceOnUse" gradientTransform="matrix(7.08242e-15,115.665,-13.7306,8.40757e-16,731.08,25.3524)"><stop offset="0" style="stop-color:rgb(255,127,0);stop-opacity:1"/><stop offset="1" style="stop-color:rgb(255,216,0);stop-opacity:1"/></linearGradient>
        <linearGradient id="_Linear2" x1="0" y1="0" x2="1" y2="0" gradientUnits="userSpaceOnUse" gradientTransform="matrix(7.08242e-15,115.665,-13.7306,8.40757e-16,731.08,25.3524)"><stop offset="0" style="stop-color:rgb(255,127,0);stop-opacity:1"/><stop offset="1" style="stop-color:rgb(255,216,0);stop-opacity:1"/></linearGradient>
    </defs>
</svg>
